<svg id="Group_1098" data-name="Group 1098" xmlns="http://www.w3.org/2000/svg" width="18.219" height="37.312" viewBox="0 0 18.219 37.312">
  <path id="Path_40" data-name="Path 40" d="M144.846,9.807V6.7h.364a1.093,1.093,0,0,0,0-2.186h-1.093V1.093A1.093,1.093,0,0,0,143.024,0h-5.83A1.093,1.093,0,0,0,136.1,1.093V4.518h-1.093a1.093,1.093,0,1,0,0,2.186h.364v3.1a6.329,6.329,0,0,1-1.866,4.505A8.5,8.5,0,0,0,131,20.363V34.033a3.283,3.283,0,0,0,3.279,3.279h11.66a3.283,3.283,0,0,0,3.279-3.279V20.363a8.5,8.5,0,0,0-2.506-6.051A6.329,6.329,0,0,1,144.846,9.807Zm-6.559-7.621h3.644V4.518h-3.644Zm8.745,24.923h-3.14a1.093,1.093,0,0,0-.946.545,3.273,3.273,0,0,1-5.674,0,1.093,1.093,0,0,0-.946-.545h-3.14V24.923h3.14a1.093,1.093,0,0,0,.946-.545,3.273,3.273,0,0,1,5.674,0,1.093,1.093,0,0,0,.946.545h3.14Zm-1.093,8.016h-11.66a1.094,1.094,0,0,1-1.093-1.093V29.3h2.556a5.456,5.456,0,0,0,8.735,0h2.556v4.737A1.094,1.094,0,0,1,145.939,35.126Zm1.093-12.389h-2.556a5.456,5.456,0,0,0-8.735,0h-2.556V20.363a6.329,6.329,0,0,1,1.866-4.505,8.5,8.5,0,0,0,2.506-6.051V6.7h5.1v3.1a8.5,8.5,0,0,0,2.507,6.051,6.33,6.33,0,0,1,1.866,4.505Z" transform="translate(-131)" fill="#26d07c"/>
</svg>
