<svg id="Group_1095" data-name="Group 1095" xmlns="http://www.w3.org/2000/svg" width="30.552" height="30.551" viewBox="0 0 30.552 30.551">
  <path id="Path_30" data-name="Path 30" d="M35.157,11.383,30.6,7.154a.451.451,0,0,0-.139-.088L26.274,5.392l0,0-1.505-.6,0,0-.006,0c-.01,0-.02-.006-.03-.009a.409.409,0,0,0-.05-.015.448.448,0,0,0-.079-.008H15.456a.448.448,0,0,0-.079.008.456.456,0,0,0-.05.014l-.03.009-.006,0,0,0-1.505.6,0,0L9.594,7.066a.451.451,0,0,0-.139.088L4.895,11.382a.451.451,0,0,0-.086.554l2.643,4.641a.451.451,0,0,0,.581.186L10.1,15.81V34.853a.451.451,0,0,0,.451.451H29.5a.451.451,0,0,0,.451-.451V15.809l2.067.954a.451.451,0,0,0,.581-.186l2.643-4.641A.451.451,0,0,0,35.157,11.383ZM15.06,5.851a5.007,5.007,0,0,0,9.932,0l.619.248a5.657,5.657,0,0,1-11.17,0Zm9.052-.2a4.11,4.11,0,0,1-8.171,0ZM29.05,34.4H11v-.645H29.05Zm2.971-18.631-2.069-.955V13.175a.451.451,0,1,0-.9,0v19.68H11V13.175a.451.451,0,1,0-.9,0v1.641l-2.069.955L5.77,11.8l4.238-3.928,3.578-1.432a6.558,6.558,0,0,0,12.881,0l3.578,1.431L34.282,11.8Z" transform="translate(-4.75 -4.753)" fill="#f12f75"/>
</svg>
