<svg xmlns="http://www.w3.org/2000/svg" width="20.705" height="33.115" viewBox="0 0 20.705 33.115">
  <g id="Group_1096" data-name="Group 1096" transform="translate(-498 141.115) rotate(-90)">
    <path id="Path_84" data-name="Path 84" d="M26.916,24.7H3.451A3.456,3.456,0,0,1,0,21.254V7.451A3.456,3.456,0,0,1,3.451,4H26.916a3.456,3.456,0,0,1,3.451,3.451v.69h.678a2.073,2.073,0,0,1,2.07,2.07v8.282a2.073,2.073,0,0,1-2.07,2.07h-.678v.69A3.456,3.456,0,0,1,26.916,24.7ZM3.451,5.38a2.073,2.073,0,0,0-2.07,2.07v13.8a2.073,2.073,0,0,0,2.07,2.07H26.916a2.073,2.073,0,0,0,2.07-2.07v-1.38a.69.69,0,0,1,.69-.69h1.368a.69.69,0,0,0,.69-.69V10.211a.69.69,0,0,0-.69-.69H29.677a.69.69,0,0,1-.69-.69V7.451a2.073,2.073,0,0,0-2.07-2.07Z" transform="translate(108 494)" fill="#ed1010"/>
    <path id="Path_85" data-name="Path 85" d="M2.765,13.8a.714.714,0,0,1-.233-.04.692.692,0,0,1-.451-.736l.594-4.746-1.985,0a.69.69,0,0,1-.56-1.092L5.064.287A.691.691,0,0,1,6.308.8L5.647,4.831l1.943,0a.69.69,0,0,1,.581,1.06l-4.826,7.59a.688.688,0,0,1-.581.319ZM2.029,6.9H3.456a.689.689,0,0,1,.683.776L3.83,10.15l2.5-3.938h-1.5a.689.689,0,0,1-.679-.8L4.468,3.5Z" transform="translate(130.08 504.212) rotate(90)" fill="#ed1010"/>
  </g>
</svg>
