<svg xmlns="http://www.w3.org/2000/svg" width="29" height="28.847" viewBox="0 0 29 28.847">
  <path id="Path_862" data-name="Path 862" d="M21.267,11.175H18.729V6.161a.483.483,0,1,0-.967,0v5.015H11.237V6.161a.483.483,0,0,0-.967,0v5.015H7.733a.483.483,0,1,0,0,.967h.423v5.377a6.344,6.344,0,0,0,12.688,0V12.142h.423a.483.483,0,1,0,0-.967Zm-4.891,6.331-1.444,2.888a.483.483,0,0,1-.865-.432l.925-1.851a.242.242,0,0,0-.216-.35H13.064a.484.484,0,0,1-.446-.7l1.45-2.9a.483.483,0,1,1,.865.432l-.925,1.851a.242.242,0,0,0,.216.35H15.95A.484.484,0,0,1,16.376,17.506Zm11.66,1.946a.483.483,0,0,1-.36-.581q.028-.119.054-.239a.483.483,0,1,1,.945.2q-.028.129-.058.256a.483.483,0,0,1-.581.36Zm-22.39,7.8A14.5,14.5,0,1,1,29,15.767a.483.483,0,1,1-.967,0,13.53,13.53,0,1,0-21.8,10.719.483.483,0,0,1-.591.765Zm22.415-6.339a14.528,14.528,0,0,1-11.242,9.171,2.418,2.418,0,0,1-2.8-2.386V25.978h-.544a.483.483,0,0,1-.483-.483v-.25a.482.482,0,0,1,.545-.479,7.336,7.336,0,0,0,1.932,0,.483.483,0,0,1,.544.48v.249a.483.483,0,0,1-.483.483h-.544V27.7a1.451,1.451,0,0,0,1.681,1.432,13.559,13.559,0,0,0,10.492-8.559.483.483,0,1,1,.9.343Z" transform="translate(0 -1.267)" fill="#b63baa"/>
</svg>
