<svg id="Group_1100" data-name="Group 1100" xmlns="http://www.w3.org/2000/svg" width="27" height="32.785" viewBox="0 0 27 32.785">
  <path id="Path_45" data-name="Path 45" d="M65.665,0H45V32.785H72V6.687Zm-.093,2.706L69.4,6.75H65.571ZM46.929,30.857V1.929H63.643v6.75h6.429V30.857Z" transform="translate(-45)" fill="#0677e2"/>
  <path id="Path_46" data-name="Path 46" d="M185.642,112.431l1.8,3.1-1.189-.216-.345,1.9,4.016.73,1.471-3.678-1.791-.716-.442,1.1-1.847-3.191A2.9,2.9,0,0,0,184.773,110h0a2.9,2.9,0,0,0-2.538,1.466l-2.324,4.025,1.67.964,2.324-4.025a1,1,0,0,1,1.737,0Z" transform="translate(-171.238 -102.929)" fill="#0677e2"/>
  <path id="Path_47" data-name="Path 47" d="M107.039,236.389a.985.985,0,0,1,0-1l1.819-3.151.421,1.178,1.816-.649-1.375-3.843-3.921.564.275,1.909,1.137-.164-1.843,3.192a2.931,2.931,0,0,0,2.538,4.4h4.806V236.89h-4.806A.985.985,0,0,1,107.039,236.389Z" transform="translate(-101.116 -214.205)" fill="#0677e2"/>
  <path id="Path_48" data-name="Path 48" d="M258.985,250.282l-1.661.98,2.428,4.116a1,1,0,0,1-.87,1.5h-3.615l.764-.885-1.46-1.26-2.667,3.09,2.423,3.133,1.526-1.18-.75-.97h3.78a2.931,2.931,0,0,0,2.538-4.4Z" transform="translate(-238.603 -234.193)" fill="#0677e2"/>
</svg>
