<svg id="Group_1094" data-name="Group 1094" xmlns="http://www.w3.org/2000/svg" width="21.901" height="32.242" viewBox="0 0 21.901 32.242">
  <path id="Path_39" data-name="Path 39" d="M28.211.359a.913.913,0,0,0-1.451,0c-.417.618-10.225,15.167-10.225,20.933a10.951,10.951,0,0,0,21.9,0C38.437,15.525,28.628.976,28.211.359ZM27.486,30.49a9.207,9.207,0,0,1-9.2-9.2c0-4,6.085-14.109,9.2-18.86,3.114,4.751,9.2,14.855,9.2,18.86A9.208,9.208,0,0,1,27.486,30.49Zm.876-2.628a.877.877,0,0,1-.876.876,7.453,7.453,0,0,1-7.446-7.446.876.876,0,1,1,1.752,0,5.7,5.7,0,0,0,5.694,5.694A.875.875,0,0,1,28.362,27.862Z" transform="translate(-16.535 0)"/>
</svg>
