<svg xmlns="http://www.w3.org/2000/svg" xmlns:xlink="http://www.w3.org/1999/xlink" width="184.166" height="42.518" viewBox="0 0 184.166 42.518">
  <defs>
    <linearGradient id="linear-gradient" x1="0.245" x2="0.965" gradientUnits="objectBoundingBox">
      <stop offset="0" stop-color="#5faefc"/>
      <stop offset="0.636" stop-color="#45af99"/>
      <stop offset="0.717" stop-color="#42af8c"/>
      <stop offset="1" stop-color="#12ac46"/>
    </linearGradient>
  </defs>
  <path id="Path_75" data-name="Path 75" d="M12.607,5.121a10.455,10.455,0,0,0,2.105.322Q16,5.53,17.169,5.53a7.236,7.236,0,0,0,3.889-.965,3.293,3.293,0,0,0,1.55-3.012A3,3,0,0,0,21.321-1.2,7.429,7.429,0,0,0,17.4-2.014h-4.8Zm0-14.27h4.269a5.748,5.748,0,0,0,3.655-.936,3.349,3.349,0,0,0,1.14-2.749,2.934,2.934,0,0,0-1.316-2.515,6.819,6.819,0,0,0-3.948-.936q-.877,0-2.018.058a14.765,14.765,0,0,0-1.784.175Zm3.8,22.516q-.994,0-2.339-.058t-2.778-.234q-1.433-.175-2.836-.439A13.737,13.737,0,0,1,5.882,11.9Q2.665,10.677,2.665,7.635V-19.677a2.57,2.57,0,0,1,.673-1.9A4.805,4.805,0,0,1,5.18-22.659a22.381,22.381,0,0,1,4.971-1.023A57.253,57.253,0,0,1,16.292-24q7.486,0,11.521,2.515a8.518,8.518,0,0,1,4.035,7.778,7.032,7.032,0,0,1-1.521,4.533A8.683,8.683,0,0,1,26.234-6.4a10.122,10.122,0,0,1,4.883,2.983,7.8,7.8,0,0,1,1.959,5.439q0,5.79-4.3,8.568T16.409,13.367ZM37.872-23.887a5.139,5.139,0,0,1,1.491-3.743,5.28,5.28,0,0,1,3.948-1.521,5.28,5.28,0,0,1,3.948,1.521,5.139,5.139,0,0,1,1.491,3.743,5.139,5.139,0,0,1-1.491,3.743,5.28,5.28,0,0,1-3.948,1.521,5.28,5.28,0,0,1-3.948-1.521A5.139,5.139,0,0,1,37.872-23.887Zm10.41,36.26q-.643.117-1.9.322a15.807,15.807,0,0,1-2.544.2,13.756,13.756,0,0,1-2.31-.175,3.935,3.935,0,0,1-1.725-.7,3.376,3.376,0,0,1-1.082-1.433,6.2,6.2,0,0,1-.38-2.369v-23.8q.643-.117,1.9-.322a15.808,15.808,0,0,1,2.544-.2,13.756,13.756,0,0,1,2.31.175,3.935,3.935,0,0,1,1.725.7A3.376,3.376,0,0,1,47.9-13.8a6.2,6.2,0,0,1,.38,2.369Zm16.259,0a13.557,13.557,0,0,1-1.842.351,18.819,18.819,0,0,1-2.6.175,13.756,13.756,0,0,1-2.31-.175,3.935,3.935,0,0,1-1.725-.7,3.376,3.376,0,0,1-1.082-1.433A6.2,6.2,0,0,1,54.6,8.22V-9.325a4.988,4.988,0,0,1,.5-2.31,5.426,5.426,0,0,1,1.433-1.725,10.336,10.336,0,0,1,2.31-1.374,23.83,23.83,0,0,1,2.953-1.082,25.02,25.02,0,0,1,3.275-.731,22.09,22.09,0,0,1,3.392-.263A7.976,7.976,0,0,1,72.9-15.729a3.925,3.925,0,0,1,1.638,3.538,5.633,5.633,0,0,1-.234,1.608,7.337,7.337,0,0,1-.585,1.433q-1.228,0-2.515.117t-2.515.351q-1.228.234-2.31.5a10.167,10.167,0,0,0-1.842.614ZM78.4-23.887a5.139,5.139,0,0,1,1.491-3.743,5.28,5.28,0,0,1,3.948-1.521,5.28,5.28,0,0,1,3.948,1.521,5.139,5.139,0,0,1,1.491,3.743,5.139,5.139,0,0,1-1.491,3.743,5.28,5.28,0,0,1-3.948,1.521,5.28,5.28,0,0,1-3.948-1.521A5.139,5.139,0,0,1,78.4-23.887Zm10.41,36.26q-.643.117-1.9.322a15.808,15.808,0,0,1-2.544.2,13.756,13.756,0,0,1-2.31-.175,3.935,3.935,0,0,1-1.725-.7,3.376,3.376,0,0,1-1.082-1.433,6.2,6.2,0,0,1-.38-2.369v-23.8q.643-.117,1.9-.322a15.808,15.808,0,0,1,2.544-.2,13.756,13.756,0,0,1,2.31.175,3.935,3.935,0,0,1,1.725.7A3.376,3.376,0,0,1,88.432-13.8a6.2,6.2,0,0,1,.38,2.369Zm34.1-5.088A7.3,7.3,0,0,1,121.3,11.5a4.888,4.888,0,0,1-3.831,1.462,6.2,6.2,0,0,1-3.334-.907,13.046,13.046,0,0,1-3.158-3.07l-5.79-7.252V12.373q-.643.117-1.9.322a15.808,15.808,0,0,1-2.544.2,13.756,13.756,0,0,1-2.31-.175,3.935,3.935,0,0,1-1.725-.7,3.376,3.376,0,0,1-1.082-1.433,6.2,6.2,0,0,1-.38-2.369V-25.642q.643-.175,1.9-.38a15.808,15.808,0,0,1,2.544-.2,13.756,13.756,0,0,1,2.31.175,3.935,3.935,0,0,1,1.725.7,3.376,3.376,0,0,1,1.082,1.433,6.2,6.2,0,0,1,.38,2.369v15.44L115.246-16.4a8.1,8.1,0,0,1,4.883,1.345,4.053,4.053,0,0,1,1.842,3.392,4.293,4.293,0,0,1-.292,1.608,5.879,5.879,0,0,1-.907,1.491,13.4,13.4,0,0,1-1.579,1.608q-.965.848-2.252,1.959L113.55-2.073Zm14.036-4.62a2.406,2.406,0,0,0,.965,2.164,4.878,4.878,0,0,0,2.719.643,11.742,11.742,0,0,0,1.813-.146,10.192,10.192,0,0,0,1.638-.38,7.15,7.15,0,0,1,.906,1.433,4.349,4.349,0,0,1,.38,1.9A4.521,4.521,0,0,1,143.7,11.9q-1.667,1.4-5.878,1.4-5.147,0-7.925-2.339t-2.778-7.6V-21.665q.643-.175,1.842-.38a15.113,15.113,0,0,1,2.544-.2,7.481,7.481,0,0,1,4.006.907q1.433.906,1.433,3.831v3.743h7.661a10.009,10.009,0,0,1,.673,1.608,6.72,6.72,0,0,1,.322,2.135,4.057,4.057,0,0,1-.906,2.953,3.28,3.28,0,0,1-2.427.907h-5.322Zm13.217-26.552a5.139,5.139,0,0,1,1.491-3.743,5.28,5.28,0,0,1,3.948-1.521,5.28,5.28,0,0,1,3.948,1.521,5.139,5.139,0,0,1,1.491,3.743,5.139,5.139,0,0,1-1.491,3.743,5.28,5.28,0,0,1-3.948,1.521,5.28,5.28,0,0,1-3.948-1.521A5.139,5.139,0,0,1,150.161-23.887Zm10.41,36.26q-.643.117-1.9.322a15.808,15.808,0,0,1-2.544.2,13.756,13.756,0,0,1-2.31-.175,3.935,3.935,0,0,1-1.725-.7,3.376,3.376,0,0,1-1.082-1.433,6.2,6.2,0,0,1-.38-2.369v-23.8q.643-.117,1.9-.322a15.808,15.808,0,0,1,2.544-.2,13.756,13.756,0,0,1,2.31.175,3.935,3.935,0,0,1,1.725.7,3.376,3.376,0,0,1,1.082,1.433,6.2,6.2,0,0,1,.38,2.369Zm16.259,0a13.558,13.558,0,0,1-1.842.351,18.819,18.819,0,0,1-2.6.175,13.756,13.756,0,0,1-2.31-.175,3.935,3.935,0,0,1-1.725-.7,3.376,3.376,0,0,1-1.082-1.433,6.2,6.2,0,0,1-.38-2.369V-9.325a4.988,4.988,0,0,1,.5-2.31,5.426,5.426,0,0,1,1.433-1.725,10.335,10.335,0,0,1,2.31-1.374,23.831,23.831,0,0,1,2.953-1.082,25.02,25.02,0,0,1,3.275-.731,22.091,22.091,0,0,1,3.392-.263,7.976,7.976,0,0,1,4.445,1.082,3.925,3.925,0,0,1,1.638,3.538,5.632,5.632,0,0,1-.234,1.608,7.335,7.335,0,0,1-.585,1.433q-1.228,0-2.515.117t-2.515.351q-1.228.234-2.31.5a10.166,10.166,0,0,0-1.842.614Z" transform="translate(-2.665 29.151)" fill="url(#linear-gradient)"/>
</svg>
