<svg xmlns="http://www.w3.org/2000/svg" xmlns:xlink="http://www.w3.org/1999/xlink" width="43.48" height="55.176" viewBox="0 0 43.48 55.176">
  <defs>
    <linearGradient id="linear-gradient" x1="4.054" y1="1.093" x2="2.366" gradientUnits="objectBoundingBox">
      <stop offset="0" stop-color="#26d07c"/>
      <stop offset="1" stop-color="#0677e2"/>
    </linearGradient>
  </defs>
  <g id="Group_1033" data-name="Group 1033" transform="translate(-165.76 -292.886)">
    <g id="Group_1031" data-name="Group 1031">
      <g id="Group_1032" data-name="Group 1032" transform="translate(-1.014 4)">
        <g id="Big_Card" data-name="Big Card" transform="translate(166.774 288.886)">
          <g id="Group_1028" data-name="Group 1028" transform="translate(0 0)">
            <g id="recycling" transform="translate(0 0)">
              <path id="Path_806" data-name="Path 806" d="M68.058,112.8a2.381,2.381,0,0,0,1.682-.656,1.747,1.747,0,0,0,.526-1.4,1.881,1.881,0,0,0-.811-1.364L65.7,106.726a6.237,6.237,0,0,1-1.6-1.852l-3.069-6.057a1.905,1.905,0,0,0-.342-.48,1.678,1.678,0,0,0-1.446-.83H49.024a3.339,3.339,0,0,0-2.678,1.57l-4.592,8.2a2.568,2.568,0,0,0,.456,3l5.513,5.227c.026.024.053.048.08.071v20.413a2.456,2.456,0,0,0,2.454,2.454h1.127a2.456,2.456,0,0,0,2.454-2.454V118.465h1.052v17.527a2.456,2.456,0,0,0,2.454,2.454h1.127a2.456,2.456,0,0,0,2.454-2.454V108.284A8.329,8.329,0,0,0,62.811,110l3.966,2.446A2.436,2.436,0,0,0,68.058,112.8ZM47.8,109.435l-1.015-1.053a1.069,1.069,0,0,1-.075-1.311l1.091-1.427Z" transform="translate(-41.461 -83.754)" fill="url(#linear-gradient)"/>
              <path id="Path_807" data-name="Path 807" d="M95,12.464A6.232,6.232,0,1,0,88.77,6.232,6.239,6.239,0,0,0,95,12.464Z" transform="translate(-82.098)" fill="url(#linear-gradient)"/>
              <path id="Path_808" data-name="Path 808" d="M238.149,211.672a2.256,2.256,0,1,0,2.256-2.256A2.259,2.259,0,0,0,238.149,211.672Z" transform="translate(-210.408 -179.879)" fill="url(#linear-gradient)"/>
              <path id="Path_809" data-name="Path 809" d="M232.329,258.725a1.823,1.823,0,0,0-1.356-.586H215.449a1.821,1.821,0,0,0-1.832,1.985l1.2,14.9a2.082,2.082,0,0,0,2.039,1.881h12.711a2.082,2.082,0,0,0,2.039-1.881l1.2-14.9A1.823,1.823,0,0,0,232.329,258.725Z" transform="translate(-189.331 -221.73)" fill="url(#linear-gradient)"/>
            </g>
          </g>
        </g>
      </g>
    </g>
    <g id="Solid" transform="translate(171.708 317.997)">
      <path id="Path_813" data-name="Path 813" d="M156.944,18.317l-.488,1.82a.534.534,0,0,1-.514.4.528.528,0,0,1-.138-.018l-1.82-.488A.533.533,0,1,1,154.26,19l.6.16L153.729,17.2a.266.266,0,0,0-.461,0l-1.1,1.91a.533.533,0,1,1-.923-.533l1.1-1.91a1.332,1.332,0,0,1,2.308,0l1.114,1.929.149-.556a.533.533,0,1,1,1.029.276Z" transform="translate(-125.528)" fill="#fff"/>
      <path id="Path_814" data-name="Path 814" d="M254.165,251.5a1.319,1.319,0,0,1-1.154.666h-2.182l.423.423a.533.533,0,1,1-.754.754l-1.332-1.332a.533.533,0,0,1,0-.754l1.332-1.332a.533.533,0,1,1,.754.754l-.423.423h2.182a.266.266,0,0,0,.231-.4l-1.1-1.91a.533.533,0,1,1,.923-.533l1.1,1.91A1.319,1.319,0,0,1,254.165,251.5Z" transform="translate(-221.195 -226.842)" fill="#fff"/>
      <path id="Path_815" data-name="Path 815" d="M26.9,200.795a.534.534,0,0,1-.533.533H24.124a1.332,1.332,0,0,1-1.154-2l1.115-1.931-.507.136A.533.533,0,1,1,23.3,196.5l1.82-.488a.532.532,0,0,1,.653.377l.488,1.82a.533.533,0,0,1-1.03.276l-.173-.647-1.166,2.02a.266.266,0,0,0,.231.4h2.247A.534.534,0,0,1,26.9,200.795Z" transform="translate(0 -175.999)" fill="#fff"/>
    </g>
  </g>
</svg>
