<svg width="85" height="20" viewBox="0 0 85 20" fill="none" xmlns="http://www.w3.org/2000/svg">
<path d="M4.59091 16.1215C4.90893 16.2055 5.23454 16.2562 5.56267 16.2728C5.9586 16.3004 6.33647 16.3142 6.69626 16.3142C7.32454 16.3381 7.9467 16.1808 8.49116 15.8604C8.72529 15.7125 8.9156 15.5026 9.04173 15.2531C9.16787 15.0035 9.22509 14.7238 9.20729 14.4436C9.20729 13.8385 9.00933 13.4075 8.61339 13.1508C8.21746 12.8941 7.61462 12.7658 6.80489 12.7658H4.59172L4.59091 16.1215ZM4.59091 9.40976H6.56042C7.33415 9.40976 7.89651 9.26306 8.24751 8.96965C8.42725 8.81016 8.56837 8.61049 8.65984 8.38622C8.75131 8.16195 8.79066 7.91916 8.77481 7.67683C8.78002 7.44343 8.72705 7.21249 8.62083 7.00564C8.51462 6.79879 8.35865 6.62278 8.16751 6.49409C7.76251 6.20137 7.15514 6.05501 6.3454 6.05501C6.07549 6.05501 5.7651 6.06418 5.41425 6.08253C5.13841 6.0931 4.86346 6.12074 4.59091 6.16529V9.40976ZM6.3454 20C6.03948 20 5.67962 19.9908 5.26582 19.9725C4.85202 19.9541 4.42461 19.9174 3.98361 19.8624C3.54273 19.8072 3.10639 19.7382 2.67459 19.6555C2.26868 19.5805 1.87093 19.4653 1.48699 19.3116C0.497221 18.9264 0.00233768 18.2574 0.00233768 17.3045V4.45864C-0.00769492 4.29601 0.0146345 4.133 0.0679846 3.97939C0.121335 3.82578 0.204604 3.68474 0.31279 3.56476C0.555176 3.33227 0.845808 3.15837 1.16313 3.05595C1.90755 2.80738 2.67729 2.64591 3.45752 2.57466C4.39887 2.47254 5.34493 2.42205 6.29159 2.4234C8.59491 2.4234 10.3674 2.81765 11.6091 3.60614C12.8508 4.39463 13.4715 5.614 13.4712 7.26423C13.4886 8.03635 13.2404 8.79034 12.7695 9.39548C12.2773 10.0086 11.6208 10.4626 10.88 10.7022C11.748 10.9392 12.5305 11.4263 13.1337 12.1051C13.7456 12.8081 14.0693 13.7236 14.0381 14.6628C14.0381 16.4783 13.3768 17.8215 12.0542 18.6925C10.7315 19.5635 8.82862 19.9993 6.3454 20ZM16.2515 2.47803C16.2439 2.15247 16.301 1.82871 16.4193 1.52619C16.5375 1.22367 16.7146 0.948624 16.9398 0.717573C17.1787 0.476804 17.4638 0.288987 17.7774 0.165923C18.0909 0.0428588 18.426 -0.0127918 18.7617 0.002467C19.0973 -0.0127918 19.4325 0.0428588 19.746 0.165923C20.0595 0.288987 20.3447 0.476804 20.5836 0.717573C20.8088 0.948624 20.9858 1.22367 21.1041 1.52619C21.2224 1.82871 21.2795 2.15247 21.2719 2.47803C21.2795 2.80359 21.2224 3.12735 21.1041 3.42987C20.9858 3.73239 20.8088 4.00743 20.5836 4.23848C20.3447 4.47925 20.0595 4.66707 19.746 4.79013C19.4325 4.91319 19.0973 4.96885 18.7617 4.95359C18.426 4.96885 18.0909 4.91319 17.7774 4.79013C17.4638 4.66707 17.1787 4.47925 16.9398 4.23848C16.7146 4.00743 16.5375 3.73239 16.4193 3.42987C16.301 3.12735 16.2439 2.80359 16.2515 2.47803ZM21.0561 19.5324C20.8582 19.5691 20.5658 19.6195 20.1789 19.6836C19.7907 19.7479 19.398 19.7801 19.0047 19.7798C18.6477 19.7829 18.291 19.7552 17.9385 19.6971C17.6509 19.6533 17.3778 19.5397 17.1422 19.366C16.9191 19.1914 16.7466 18.9585 16.6429 18.6921C16.5139 18.3359 16.4543 17.9575 16.4675 17.578V6.38401C16.6654 6.34731 16.9578 6.29689 17.3446 6.23275C17.7329 6.16848 18.1255 6.1363 18.5188 6.13653C18.8759 6.13352 19.2325 6.16121 19.585 6.2193C19.8726 6.2631 20.1457 6.37664 20.3814 6.55037C20.6044 6.72497 20.777 6.95785 20.8806 7.2243C21.0097 7.58048 21.0693 7.9589 21.0561 8.33834V19.5324ZM28.5599 19.5324C28.2806 19.6075 27.9964 19.6628 27.7096 19.6979C27.3115 19.7538 26.9102 19.7814 26.5084 19.7807C26.1513 19.7837 25.7947 19.756 25.4422 19.6979C25.1546 19.6541 24.8815 19.5406 24.6459 19.3668C24.4228 19.1922 24.2503 18.9594 24.1466 18.6929C24.0175 18.3367 23.9579 17.9583 23.9712 17.5789V9.32741C23.9611 8.95173 24.0398 8.5791 24.2006 8.24088C24.3632 7.92638 24.5884 7.64997 24.8619 7.42935C25.1882 7.16752 25.5466 6.95021 25.9281 6.78294C26.3709 6.58294 26.8263 6.41296 27.2911 6.27413C27.7869 6.12536 28.2919 6.01068 28.8028 5.93086C29.3207 5.84852 29.8441 5.80702 30.3682 5.80671C31.232 5.80671 31.9156 5.97631 32.419 6.31552C32.9224 6.65472 33.1746 7.20933 33.1755 7.97934C33.1756 8.2355 33.1392 8.49032 33.0675 8.73583C33.0011 8.96954 32.9107 9.19544 32.7976 9.40976C32.4197 9.40976 32.0328 9.42811 31.637 9.4648C31.2412 9.50149 30.8544 9.55667 30.4765 9.63033C30.0985 9.70372 29.7431 9.78166 29.4103 9.86415C29.1184 9.93283 28.8337 10.0298 28.5599 10.1538V19.5324ZM34.957 2.47803C34.9494 2.15247 35.0065 1.82871 35.1248 1.52619C35.2431 1.22367 35.4201 0.948624 35.6453 0.717573C35.8842 0.476804 36.1694 0.288987 36.4829 0.165923C36.7964 0.0428588 37.1316 -0.0127918 37.4672 0.002467C37.8029 -0.0127918 38.138 0.0428588 38.4515 0.165923C38.7651 0.288987 39.0502 0.476804 39.2891 0.717573C39.5143 0.948624 39.6914 1.22367 39.8096 1.52619C39.9279 1.82871 39.985 2.15247 39.9774 2.47803C39.985 2.80359 39.9279 3.12735 39.8097 3.42987C39.6914 3.73239 39.5143 4.00744 39.2891 4.23848C39.0502 4.47925 38.7651 4.66707 38.4515 4.79013C38.138 4.91319 37.8029 4.96885 37.4672 4.95359C37.1316 4.96885 36.7964 4.91319 36.4829 4.79013C36.1694 4.66707 35.8842 4.47925 35.6453 4.23848C35.4201 4.00743 35.2431 3.73239 35.1248 3.42987C35.0065 3.12735 34.9494 2.80359 34.957 2.47803ZM39.7616 19.5324C39.5637 19.5691 39.2713 19.6195 38.8845 19.6836C38.4963 19.7479 38.1036 19.7801 37.7103 19.7798C37.3532 19.7829 36.9966 19.7552 36.6441 19.6971C36.3565 19.6533 36.0834 19.5397 35.8478 19.366C35.6247 19.1914 35.4522 18.9585 35.3485 18.6921C35.2194 18.3359 35.1598 17.9575 35.173 17.578V6.38401C35.3709 6.34731 35.6633 6.29689 36.0502 6.23275C36.4384 6.16848 36.8311 6.1363 37.2244 6.13653C37.5814 6.13352 37.9381 6.16121 38.2906 6.2193C38.5782 6.26309 38.8513 6.37663 39.0869 6.55037C39.31 6.72497 39.4825 6.95785 39.5862 7.2243C39.7152 7.58048 39.7748 7.9589 39.7616 8.33834V19.5324ZM55.4974 17.1392C55.4074 18.001 55.16 18.6612 54.7551 19.1196C54.3502 19.578 53.7609 19.8072 52.9872 19.8072C52.4451 19.8165 51.9115 19.6686 51.4488 19.3807C50.8861 18.987 50.3932 18.4987 49.9911 17.9366L47.3185 14.5262V19.5324C47.1206 19.5691 46.8282 19.6195 46.4413 19.6836C46.0531 19.7479 45.6604 19.7801 45.2671 19.7798C44.9101 19.7829 44.5534 19.7552 44.2009 19.6971C43.9133 19.6533 43.6402 19.5397 43.4046 19.366C43.1815 19.1914 43.009 18.9585 42.9053 18.6921C42.7765 18.3366 42.7168 17.959 42.7297 17.5803V1.65284C42.9276 1.59766 43.22 1.53807 43.6068 1.47406C43.995 1.40979 44.3877 1.37762 44.781 1.37785C45.1381 1.37483 45.4947 1.40252 45.8472 1.46061C46.1348 1.50441 46.4079 1.61795 46.6436 1.79168C46.8666 1.96628 47.0391 2.19916 47.1428 2.46561C47.2719 2.82179 47.3315 3.20021 47.3183 3.57965V10.8425L51.9608 6.00059C52.8966 6.00059 53.6479 6.21151 54.2146 6.63334C54.4753 6.80624 54.6896 7.04267 54.8381 7.32123C54.9866 7.59978 55.0646 7.91168 55.065 8.22867C55.0679 8.48732 55.0221 8.74414 54.9299 8.98516C54.8255 9.23889 54.6844 9.47532 54.5115 9.68661C54.2898 9.95918 54.0461 10.2122 53.7827 10.4431C53.4859 10.7091 53.1395 11.0162 52.7436 11.3645L51.1781 12.7399L55.4974 17.1392ZM61.9745 14.9665C61.9745 15.4433 62.1229 15.7825 62.4198 15.9844C62.8003 16.2078 63.2366 16.313 63.675 16.2869C63.9552 16.2861 64.235 16.2631 64.5117 16.2182C64.7681 16.1799 65.0208 16.1201 65.2675 16.0394C65.4327 16.2463 65.5732 16.4726 65.6859 16.7133C65.8097 16.994 65.8696 17.2996 65.8614 17.6072C65.8697 17.9325 65.8047 18.2554 65.6713 18.5511C65.5379 18.8468 65.3398 19.1073 65.092 19.3126C64.5791 19.7527 63.6749 19.9727 62.3794 19.9727C60.7956 19.9727 59.5765 19.606 58.722 18.8725C57.8674 18.1391 57.4401 16.9471 57.44 15.2966V3.52296C57.6379 3.46778 57.9213 3.40819 58.2903 3.34418C58.6783 3.27843 59.0711 3.24624 59.4645 3.24797C60.2562 3.24797 60.8725 3.39012 61.3134 3.67442C61.7543 3.95873 61.9751 4.55913 61.9759 5.47564V7.23671H65.5111C65.636 7.4792 65.7399 7.73232 65.8216 7.9932C65.9238 8.31752 65.9739 8.65655 65.97 8.99717C65.97 9.63902 65.8305 10.102 65.5515 10.3862C65.403 10.5311 65.2271 10.6436 65.0345 10.7169C64.8419 10.7903 64.6367 10.8228 64.4313 10.8127H61.9745V14.9665ZM68.0747 2.47844C68.0672 2.15288 68.1243 1.82912 68.2425 1.5266C68.3608 1.22408 68.5379 0.949038 68.7631 0.717987C69.0019 0.477218 69.2871 0.289401 69.6007 0.166337C69.9142 0.0432729 70.2493 -0.0123782 70.585 0.00288061C70.9206 -0.0123782 71.2557 0.0432729 71.5693 0.166337C71.8828 0.289401 72.168 0.477218 72.4069 0.717987C72.632 0.949038 72.8091 1.22408 72.9274 1.5266C73.0457 1.82912 73.1027 2.15288 73.0952 2.47844C73.1027 2.804 73.0457 3.12776 72.9274 3.43028C72.8091 3.7328 72.632 4.00784 72.4069 4.23889C72.1682 4.47934 71.8834 4.66695 71.5703 4.78997C71.2571 4.91299 70.9225 4.96876 70.5872 4.95379C70.2515 4.96905 69.9164 4.9134 69.6029 4.79034C69.2893 4.66727 69.0042 4.47946 68.7653 4.23869C68.5399 4.00768 68.3627 3.73264 68.2443 3.43007C68.1259 3.12751 68.0687 2.80368 68.0762 2.47803L68.0747 2.47844ZM72.8816 19.5324C72.6837 19.5691 72.3913 19.6195 72.0044 19.6836C71.6162 19.7479 71.2235 19.7801 70.8302 19.7798C70.4732 19.7829 70.1165 19.7552 69.7641 19.6971C69.4764 19.6533 69.2033 19.5397 68.9677 19.366C68.7446 19.1914 68.5721 18.9585 68.4684 18.6921C68.3396 18.3366 68.28 17.959 68.2928 17.5803V6.38401C68.4907 6.34731 68.7831 6.29689 69.17 6.23275C69.558 6.16851 69.9504 6.13633 70.3435 6.13653C70.7006 6.13352 71.0572 6.16121 71.4097 6.2193C71.6973 6.26309 71.9705 6.37663 72.2061 6.55037C72.4291 6.72496 72.6017 6.95784 72.7053 7.2243C72.8344 7.58048 72.894 7.9589 72.8808 8.33834L72.8816 19.5324ZM80.3854 19.5324C80.1061 19.6075 79.822 19.6628 79.5351 19.6979C79.1371 19.7538 78.7357 19.7814 78.3339 19.7807C77.9768 19.7837 77.6202 19.756 77.2677 19.6979C76.9801 19.6541 76.707 19.5406 76.4714 19.3668C76.2483 19.1922 76.0758 18.9594 75.9721 18.6929C75.843 18.3367 75.7835 17.9583 75.7967 17.5789V9.32741C75.7867 8.95173 75.8653 8.57911 76.0261 8.24088C76.1887 7.92638 76.4139 7.64997 76.6874 7.42935C77.0137 7.16751 77.3721 6.9502 77.7536 6.78294C78.1959 6.583 78.6507 6.41303 79.115 6.27413C79.611 6.12533 80.1163 6.01064 80.6275 5.93086C81.1454 5.84852 81.6688 5.80702 82.1929 5.80671C83.0567 5.80671 83.7402 5.97631 84.2437 6.31552C84.7471 6.65472 84.9992 7.20933 85 7.97934C85.0001 8.2355 84.9637 8.49032 84.892 8.73583C84.8256 8.96955 84.7352 9.19545 84.6221 9.40976C84.2442 9.40976 83.8573 9.42811 83.4615 9.4648C83.0657 9.50149 82.6789 9.55667 82.3009 9.63033C81.923 9.70372 81.5676 9.78166 81.2348 9.86415C80.9429 9.93282 80.6581 10.0298 80.3844 10.1538L80.3854 19.5324Z" fill="white"/>
</svg>
