<svg xmlns="http://www.w3.org/2000/svg" width="22.639" height="24.148" viewBox="0 0 22.639 24.148">
  <path id="Icon_metro-calendar" data-name="Icon metro-calendar" d="M10.117,10.984h3.019V14H10.117Zm4.528,0h3.019V14H14.645Zm4.528,0h3.019V14H19.173ZM5.589,20.039H8.608v3.019H5.589Zm4.528,0h3.019v3.019H10.117Zm4.528,0h3.019v3.019H14.645Zm-4.528-4.528h3.019V18.53H10.117Zm4.528,0h3.019V18.53H14.645Zm4.528,0h3.019V18.53H19.173Zm-13.583,0H8.608V18.53H5.589Zm16.6-13.583V3.437H19.173V1.928H8.608V3.437H5.589V1.928H2.571V26.076H25.21V1.928H22.191ZM23.7,24.567H4.08V7.965H23.7Z" transform="translate(-2.571 -1.928)"/>
</svg>
