<svg xmlns="http://www.w3.org/2000/svg" width="237.497" height="218.466" viewBox="0 0 237.497 218.466">
  <g id="Group_222" data-name="Group 222" transform="translate(0 -0.99)">
    <path id="Path_1364" data-name="Path 1364" d="M233.842,120.02a9.957,9.957,0,1,0-10.886,8.932A9.957,9.957,0,0,0,233.842,120.02Z" fill="#0677e2"/>
    <path id="Path_1365" data-name="Path 1365" d="M13.947,70.544A7.95,7.95,0,1,0,4.368,64.66,7.95,7.95,0,0,0,13.947,70.544Z" fill="#0677e2"/>
    <path id="Path_1366" data-name="Path 1366" d="M184.2,54.494a18.1,18.1,0,1,0-18.1-18.1A18.1,18.1,0,0,0,184.2,54.494Z" fill="#0677e2"/>
    <path id="Path_1367" data-name="Path 1367" d="M22.392,219H204.215c8.189-5.466,19.84-11.754,24.2-24.5,10.329-30.171-13.994-40.909-27.239-55.863s14.164-21.146,10.5-53.339c-1.885-16.563-24.019-31.7-46.659-23.738S139.091,60.05,128.6,40.741c-12.2-22.446-64.3-34.62-94.513,5.719s-1.068,70.9-4.484,85.33S1.845,153.653.107,181.417C-.9,197.5,5.047,211.9,22.392,219Z" fill="#0677e2"/>
    <path id="Path_1368" data-name="Path 1368" d="M36.131,218.205c-2.873.752-15.865,2.908-15.656-7.44.106-5.286-1.435-5.094-4.532-7.166s-3.023-3.4-2.751-6.353-2.677-1.525-4.643-5.415c-2.349-4.652.479-8.124,5.045-8.96s4.432,4.088,6.247,5.556,4.323-1.688,7.809,2.591c2.272,2.793-1.257,9.168,2.09,8.574" fill="none" stroke="#f2f9ff" stroke-miterlimit="10" stroke-width="1"/>
    <path id="Path_1369" data-name="Path 1369" d="M29.806,209.189c-3.412-4.612-8.139-10.679-14.026-17.444" fill="none" stroke="#f2f9ff" stroke-miterlimit="10" stroke-width="0.5"/>
    <path id="Path_1370" data-name="Path 1370" d="M22.96,191.2l-.564,8.432-6.78.563" fill="none" stroke="#f2f9ff" stroke-miterlimit="10" stroke-width="0.5"/>
    <path id="Path_1371" data-name="Path 1371" d="M16.916,156.885c-10.187-5.314-11.681-18.345-.562-24.825,11.529-6.717,20.972,4.668,22.287,13.188,1.014,6.571-3.582,11.161,8.378,15.977s10.113,10.8,7.655,22.239,5.63,7.247,11.908,16.9c4.978,7.653-2.017,15.459-5.136,18.372l-24.463-.118a18,18,0,0,1-2.266-1.573c-7.9-6.457-4.762-16.661-3.942-24.608.889-8.593-11.47-4.753-16.4-15.783S23.4,160.264,16.916,156.885Z" fill="none" stroke="#f2f9ff" stroke-miterlimit="10" stroke-width="1"/>
    <path id="Path_1372" data-name="Path 1372" d="M56.813,218.57s-29.1-64.4-36.4-77.441" fill="none" stroke="#f2f9ff" stroke-miterlimit="10" stroke-width="0.5"/>
    <path id="Path_1373" data-name="Path 1373" d="M34.455,170.083l-16.231-.86" fill="none" stroke="#f2f9ff" stroke-miterlimit="10" stroke-width="0.5"/>
    <path id="Path_1374" data-name="Path 1374" d="M50.842,205.524,32.59,203.556" fill="none" stroke="#d39aaf" stroke-miterlimit="10" stroke-width="0.5"/>
    <path id="Path_1375" data-name="Path 1375" d="M52.064,166.775,42.528,187.3" fill="none" stroke="#f2f9ff" stroke-miterlimit="10" stroke-width="0.5"/>
    <path id="Path_1376" data-name="Path 1376" d="M26.314,143.956a2.591,2.591,0,0,0,3.5.669,2.352,2.352,0,0,0,.6-3.367,2.59,2.59,0,0,0-3.5-.668,2.351,2.351,0,0,0-.6,3.366Z" fill="none" stroke="#f2f9ff" stroke-miterlimit="10" stroke-width="1"/>
    <path id="Path_1377" data-name="Path 1377" d="M27.325,148.777a1.4,1.4,0,1,0,1.4-1.344,1.373,1.373,0,0,0-1.4,1.344Z" fill="none" stroke="#d39aaf" stroke-miterlimit="10" stroke-width="1"/>
    <path id="Path_1378" data-name="Path 1378" d="M20.272,177a2.173,2.173,0,1,0,2.173-2.075A2.124,2.124,0,0,0,20.272,177Z" fill="none" stroke="#f2f9ff" stroke-miterlimit="10" stroke-width="1"/>
    <path id="Path_1379" data-name="Path 1379" d="M234.138,180.7c3.5-2.853,4.339-11.665-.651-14.341-6.169-3.308-12.628,1.812-13.439,7.076-.627,4.061,2.75,9.078-5.178,9.878-7.422.746-8.132,4.753-4.732,13.745,2.559,6.764-3.477,4.478-7.359,10.447-3.077,4.729,1.247,9.553,3.174,11.352l15.119-.074a11.159,11.159,0,0,0,1.4-.971c4.883-3.991,2.943-10.3,2.437-15.212-.548-5.312,7.09-2.937,10.131-9.754S230.635,183.551,234.138,180.7Z" fill="none" stroke="#f2f9ff" stroke-miterlimit="10" stroke-width="1"/>
    <path id="Path_1380" data-name="Path 1380" d="M208.818,218.75s17.987-39.8,22.5-47.861" fill="none" stroke="#f2f9ff" stroke-miterlimit="10" stroke-width="0.5"/>
    <path id="Path_1381" data-name="Path 1381" d="M222.635,188.786l10.031-.533" fill="none" stroke="#f2f9ff" stroke-miterlimit="10" stroke-width="0.5"/>
    <path id="Path_1382" data-name="Path 1382" d="M212.507,210.688l11.28-1.216" fill="none" stroke="#f2f9ff" stroke-miterlimit="10" stroke-width="0.5"/>
    <path id="Path_1383" data-name="Path 1383" d="M210.622,185.476l7.024,13.947" fill="none" stroke="#f2f9ff" stroke-miterlimit="10" stroke-width="0.5"/>
    <path id="Path_1384" data-name="Path 1384" d="M226.039,172.272a1.471,1.471,0,0,1-1.908.586,1.341,1.341,0,0,1-.33-.418,1.368,1.368,0,0,1-.141-.513,1.34,1.34,0,0,1,.34-.986,1.469,1.469,0,0,1,1.908-.585,1.341,1.341,0,0,1,.131,1.916Z" fill="none" stroke="#f2f9ff" stroke-miterlimit="10" stroke-width="1"/>
    <path id="Path_1385" data-name="Path 1385" d="M231.4,193.06a1.342,1.342,0,0,1-1.567,1.38,1.342,1.342,0,0,1,.226-2.664,1.315,1.315,0,0,1,1.341,1.284Z" fill="none" stroke="#f2f9ff" stroke-miterlimit="10" stroke-width="1"/>
    <path id="Path_1386" data-name="Path 1386" d="M206.634,192.261H146.142v26.454h60.492Z" fill="#f2f9ff" stroke="#0677e2" stroke-miterlimit="10" stroke-width="1"/>
    <path id="Path_1387" data-name="Path 1387" d="M209.53,189.015H143.245v6.134H209.53Z" fill="#f2f9ff" stroke="#0677e2" stroke-miterlimit="10" stroke-width="1"/>
    <path id="Path_1388" data-name="Path 1388" d="M87.355,184.133H26.864v34.58H87.355Z" fill="#f2f9ff" stroke="#0677e2" stroke-miterlimit="10" stroke-width="1"/>
    <path id="Path_1389" data-name="Path 1389" d="M90.251,181.17H23.966V187.3H90.251Z" fill="#f2f9ff" stroke="#0677e2" stroke-miterlimit="10" stroke-width="1"/>
    <path id="Path_1390" data-name="Path 1390" d="M147.165,172.756H86.673v45.958h60.492Z" fill="#f2f9ff" stroke="#0677e2" stroke-miterlimit="10" stroke-width="1"/>
    <path id="Path_1391" data-name="Path 1391" d="M150.061,168.617H83.776v6.134h66.285Z" fill="#f2f9ff" stroke="#0677e2" stroke-miterlimit="10" stroke-width="1"/>
    <path id="Path_1392" data-name="Path 1392" d="M121.439,203.059h-8.712v-1.546h3.48V189.546l-3.566,1.063v-1.676l5.328-1.622v14.2h3.47Z" fill="#0677e2"/>
    <path id="Path_1393" data-name="Path 1393" d="M72.528,193.926,71.407,205.9l-6.532,1.05-.4-12.586Z" fill="#efa490"/>
    <path id="Path_1394" data-name="Path 1394" d="M86.544,218.9l-25.006-.31.738-14.782L74,204.736l.291,5.784Z" fill="#523190"/>
    <path id="Path_1395" data-name="Path 1395" d="M79.287,212.563l-1.579,3.409" fill="none" stroke="#010101" stroke-miterlimit="10" stroke-width="0.25"/>
    <path id="Path_1396" data-name="Path 1396" d="M77,211.279l-1.579,3.409" fill="none" stroke="#010101" stroke-miterlimit="10" stroke-width="0.25"/>
    <path id="Path_1397" data-name="Path 1397" d="M75.268,210.744s6.473-2.536,5.433-4.375C79.038,203.41,75.268,210.744,75.268,210.744Z" fill="none" stroke="#010101" stroke-miterlimit="10" stroke-width="0.25"/>
    <path id="Path_1398" data-name="Path 1398" d="M76.786,204.553l-1.692,6.3" fill="none" stroke="#010101" stroke-miterlimit="10" stroke-width="0.25"/>
    <path id="Path_1399" data-name="Path 1399" d="M66.433,218.649a4.436,4.436,0,0,0-4.568-6.538l-.016.307a4.241,4.241,0,0,1,.539-.058,4.148,4.148,0,0,1,3.7,6.285Z" fill="#f8da35"/>
    <path id="Path_1400" data-name="Path 1400" d="M86.544,218.9l-25.006-.31.738-14.782" fill="none" stroke="#010101" stroke-miterlimit="10" stroke-width="0.25"/>
    <path id="Path_1401" data-name="Path 1401" d="M58.6,150.714l2.576,46.345h14.6s6.421-70.356,3.5-80.23-20.669-2-20.669-2Z" fill="#459c90"/>
    <path id="Path_1402" data-name="Path 1402" d="M58.6,114.825v35.89l2.576,46.345h14.6" fill="none" stroke="#2d7a6d" stroke-miterlimit="10" stroke-width="0.25"/>
    <path id="Path_1403" data-name="Path 1403" d="M33.151,159.925l-9.186-7.765,2.871-5.96,10.558,6.862Z" fill="#efa490"/>
    <path id="Path_1404" data-name="Path 1404" d="M4.647,157.157l14.548-20.348L30.9,145.867l-7.464,9.087-4.912-3.067Z" fill="#523190"/>
    <path id="Path_1405" data-name="Path 1405" d="M13.995,154.817,12.1,151.572" fill="none" stroke="#010101" stroke-miterlimit="10" stroke-width="0.25"/>
    <path id="Path_1406" data-name="Path 1406" d="M16.354,153.675,14.46,150.43" fill="none" stroke="#010101" stroke-miterlimit="10" stroke-width="0.25"/>
    <path id="Path_1407" data-name="Path 1407" d="M17.785,152.56s-1.619,6.76.482,6.962C21.649,159.847,17.785,152.56,17.785,152.56Z" fill="none" stroke="#010101" stroke-miterlimit="10" stroke-width="0.25"/>
    <path id="Path_1408" data-name="Path 1408" d="M22,157.343l-4.2-4.992" fill="none" stroke="#010101" stroke-miterlimit="10" stroke-width="0.25"/>
    <path id="Path_1409" data-name="Path 1409" d="M16.35,140.792a4.437,4.437,0,0,0,7.976-.012l-.244-.188a4.146,4.146,0,0,1-7.536-.076Z" fill="#f8da35"/>
    <path id="Path_1410" data-name="Path 1410" d="M4.647,157.157l14.548-20.348L30.9,145.867" fill="none" stroke="#010101" stroke-miterlimit="10" stroke-width="0.25"/>
    <path id="Path_1411" data-name="Path 1411" d="M75.236,120.132l-8.764.7.015.079-13.934-.169-8,31.16L35.968,149.3,29.739,160.35c6.231,10.533,21.993,17.582,29.549,4.589,4.4-7.566,8.3-21.225,10.788-31.312l3.371-1.843Z" fill="#459c90"/>
    <path id="Path_1412" data-name="Path 1412" d="M72.53,132.378l-2.4,1.013s-3.289,18.558-10.846,31.549S35.97,170.7,29.813,160.221l6.158-10.926,8.583,2.61" fill="none" stroke="#2d7a6d" stroke-miterlimit="10" stroke-width="0.25"/>
    <path id="Path_1413" data-name="Path 1413" d="M42.574,159.615l9.977-38.87" fill="none" stroke="#2d7a6d" stroke-miterlimit="10" stroke-width="0.25"/>
    <path id="Path_1414" data-name="Path 1414" d="M52.174,132.688a7.59,7.59,0,0,0,6.025-.514,5.956,5.956,0,0,0,3.032-5.1" fill="none" stroke="#2d7a6d" stroke-miterlimit="10" stroke-width="0.25"/>
    <path id="Path_1415" data-name="Path 1415" d="M17.682,63.289S10.42,50.678,9.742,48.149s1.119-2.7,1.86-.914c0,0-.79-1.66-.269-2.16s1.518.509,2.167,1.988c0,0-1.511-2.545-.84-3.111s1.694.727,2.405,2.32c0,0-1.292-2.609-.489-3.153s2.555,1.363,4.3,5.8c0,0-.927-3.834.1-4.173s2.469,5.382,3.247,7.595,3.487,7.591,3.487,7.591Z" fill="#efa490"/>
    <path id="Path_1416" data-name="Path 1416" d="M11.392,46.885q.853,2.219,1.818,4.395Z" fill="#efa490"/>
    <path id="Path_1417" data-name="Path 1417" d="M11.392,46.885q.853,2.219,1.818,4.395" fill="none" stroke="#663434" stroke-miterlimit="10" stroke-width="0.25"/>
    <path id="Path_1418" data-name="Path 1418" d="M13.016,46.193l2.162,4.478" fill="none" stroke="#663434" stroke-miterlimit="10" stroke-width="0.25"/>
    <path id="Path_1419" data-name="Path 1419" d="M14.556,45.224a42.846,42.846,0,0,1,2.1,4.89Z" fill="#efa490"/>
    <path id="Path_1420" data-name="Path 1420" d="M14.556,45.224a42.846,42.846,0,0,1,2.1,4.89" fill="none" stroke="#663434" stroke-miterlimit="10" stroke-width="0.25"/>
    <path id="Path_1421" data-name="Path 1421" d="M17.376,52.692a2.309,2.309,0,0,1,.326-1.827c.13-.192.289-.362.437-.542a2.667,2.667,0,0,0,.715-1.763" fill="#efa490"/>
    <path id="Path_1422" data-name="Path 1422" d="M17.376,52.692a2.309,2.309,0,0,1,.326-1.827c.13-.192.289-.362.437-.542a2.667,2.667,0,0,0,.715-1.763" fill="none" stroke="#663434" stroke-miterlimit="10" stroke-width="0.25"/>
    <path id="Path_1423" data-name="Path 1423" d="M65.059,84.516s-17.3-2.92-25.525-10.978C29.952,64.154,26.8,58.3,26.8,58.3L15.948,63.24s6.315,37.356,39.821,42.2l11.5-19.077Z" fill="#8055ba"/>
    <path id="Path_1424" data-name="Path 1424" d="M17,67.615l12.116-5.834A33.916,33.916,0,0,1,26.8,58.3L15.948,63.24S16.234,64.921,17,67.615Z" fill="#c1b0f8"/>
    <path id="Path_1425" data-name="Path 1425" d="M30.93,92.735a42.128,42.128,0,0,0,24.84,12.7l11.5-19.078L65.06,84.515s-17.3-2.92-25.526-10.978C29.953,64.153,26.8,58.3,26.8,58.3" fill="none" stroke="#523190" stroke-miterlimit="10" stroke-width="0.25"/>
    <path id="Path_1426" data-name="Path 1426" d="M88.285,63.822l1.454-7.779s-2-4.4-2.4-5.738.133-2.377,1.342-1.448a8.28,8.28,0,0,1,2.106,3.082c.479-1.732.951-4.725.951-4.725l6.025,4.994c1.6,4.988-1.525,14.13-1.525,14.13Z" fill="#efa490"/>
    <path id="Path_1427" data-name="Path 1427" d="M91.01,52.012l.566.451a8.982,8.982,0,0,1,.8.691,5.447,5.447,0,0,1,1.342,4.56" fill="none" stroke="#663434" stroke-miterlimit="10" stroke-width="0.25"/>
    <path id="Path_1428" data-name="Path 1428" d="M97.469,65.924,87.209,63.06,79.285,81.087l.947-2.154L65.046,87.17s4.538,20.447,9.833,18.5,15.218-9.3,18.385-16.4C97,80.916,97.469,65.924,97.469,65.924Z" fill="#8055ba"/>
    <path id="Path_1429" data-name="Path 1429" d="M87.21,63.063l-1.482,3.358L97.21,70.058c.255-2.483.255-4.135.255-4.135Z" fill="#c1b0f8"/>
    <path id="Path_1430" data-name="Path 1430" d="M87.211,63.063,79.286,81.089" fill="none" stroke="#523190" stroke-miterlimit="10" stroke-width="0.25"/>
    <path id="Path_1431" data-name="Path 1431" d="M80.235,78.936,65.049,87.174s4.538,20.447,9.833,18.5c3.492-1.284,9.312-5.1,13.615-9.653" fill="none" stroke="#523190" stroke-miterlimit="10" stroke-width="0.25"/>
    <path id="Path_1432" data-name="Path 1432" d="M54.373,93.658c-4,9.124-5.766,33.15-5.766,33.15,19.854,3.161,33.448-.625,33.448-.625a110.787,110.787,0,0,0-2.825-24.122C75.15,86.007,67.84,82.538,67.84,82.538Z" fill="#8055ba"/>
    <path id="Path_1433" data-name="Path 1433" d="M67.839,82.539s7.31,3.469,11.39,19.523a110.787,110.787,0,0,1,2.825,24.122s-13.591,3.783-33.448.625c0,0,1.769-24.027,5.766-33.15" fill="none" stroke="#523190" stroke-miterlimit="10" stroke-width="0.25"/>
    <path id="Path_1434" data-name="Path 1434" d="M69.484,90.589l.745,3.5a.867.867,0,0,0,1.059.6.881.881,0,0,0,.6-1.059l-.745-3.5a.867.867,0,0,0-1.059-.6.882.882,0,0,0-.6,1.06Z" fill="#c1b0f8"/>
    <path id="Path_1435" data-name="Path 1435" d="M62.448,93.558q-.057,2.195.031,4.391a.861.861,0,0,0,1.723,0q-.088-2.194-.031-4.391a.869.869,0,0,0-.861-.86.878.878,0,0,0-.861.86Z" fill="#c1b0f8"/>
    <path id="Path_1436" data-name="Path 1436" d="M67.735,100.04q.179,1.9.357,3.794a.861.861,0,0,0,1.722,0q-.178-1.9-.357-3.794a.879.879,0,0,0-.86-.861.87.87,0,0,0-.861.861Z" fill="#c1b0f8"/>
    <path id="Path_1437" data-name="Path 1437" d="M74.9,103.557l.714,4.7a.865.865,0,0,0,1.059.6.89.89,0,0,0,.6-1.059l-.714-4.7a.865.865,0,0,0-1.059-.6.89.89,0,0,0-.6,1.059Z" fill="#c1b0f8"/>
    <path id="Path_1438" data-name="Path 1438" d="M59.789,105.42q-.23,2.243-.329,4.5a.867.867,0,0,0,.86.86.879.879,0,0,0,.861-.86q.1-2.253.329-4.5a.864.864,0,0,0-.861-.861.888.888,0,0,0-.86.861Z" fill="#c1b0f8"/>
    <path id="Path_1439" data-name="Path 1439" d="M54.347,99.64l-.331,3.787a.864.864,0,0,0,.861.861.888.888,0,0,0,.86-.861q.165-1.893.331-3.787a.864.864,0,0,0-.861-.861.883.883,0,0,0-.86.861Z" fill="#c1b0f8"/>
    <path id="Path_1440" data-name="Path 1440" d="M54.2,111.763q-.181,2.146-.361,4.292a.866.866,0,0,0,.861.861.884.884,0,0,0,.86-.861q.181-2.146.361-4.292a.865.865,0,0,0-.861-.861.882.882,0,0,0-.86.861Z" fill="#c1b0f8"/>
    <path id="Path_1441" data-name="Path 1441" d="M65.556,111.054q.113,1.878.226,3.754l.033.54a.861.861,0,0,0,1.723,0q-.114-1.876-.226-3.753l-.033-.541a.861.861,0,0,0-1.722,0Z" fill="#c1b0f8"/>
    <path id="Path_1442" data-name="Path 1442" d="M73.595,115.4q.1,1.743.2,3.49a.861.861,0,0,0,1.722,0q-.1-1.745-.2-3.49a.86.86,0,0,0-.242-.628.878.878,0,0,0-.283-.195.866.866,0,0,0-.673,0,.878.878,0,0,0-.283.195.86.86,0,0,0-.242.628Z" fill="#c1b0f8"/>
    <path id="Path_1443" data-name="Path 1443" d="M59.2,119.884a27.575,27.575,0,0,0-.04,3.095.861.861,0,0,0,1.722,0,27.575,27.575,0,0,1,.04-3.095.866.866,0,0,0-.86-.861.882.882,0,0,0-.861.861Z" fill="#c1b0f8"/>
    <path id="Path_1444" data-name="Path 1444" d="M78.3,120.386c.035,1,.14,2,.246,3a.932.932,0,0,0,.252.609.861.861,0,0,0,1.47-.609c-.1-1-.209-2-.246-3a.86.86,0,0,0-.524-.822.854.854,0,0,0-.673,0,.86.86,0,0,0-.525.822Z" fill="#c1b0f8"/>
    <path id="Path_1445" data-name="Path 1445" d="M68.749,120.942v3.59a.861.861,0,0,0,1.722,0v-3.59a.86.86,0,0,0-.525-.822.854.854,0,0,0-.673,0,.86.86,0,0,0-.524.822Z" fill="#c1b0f8"/>
    <path id="Path_1446" data-name="Path 1446" d="M52.257,120.993l-.147,3.049-.021.439a.867.867,0,0,0,.86.861.879.879,0,0,0,.861-.861q.074-1.526.147-3.049c.007-.146.015-.3.021-.44a.865.865,0,0,0-.86-.86.88.88,0,0,0-.861.86Z" fill="#c1b0f8"/>
    <path id="Path_1447" data-name="Path 1447" d="M70.228,84.673c0,1.9-2.469,3.438-5.506,3.438s-5.506-1.539-5.506-3.438,2.469-3.438,5.506-3.438S70.228,82.773,70.228,84.673Z" fill="#fff" stroke="#523190" stroke-miterlimit="10" stroke-width="0.25"/>
    <path id="Path_1448" data-name="Path 1448" d="M60.422,74.887l.331,3.972.021.252.377,4.523a3,3,0,0,0,3.233,2.736l1.9-.159a3,3,0,0,0,2.735-3.233l-.334-4Z" fill="#efa490"/>
    <path id="Path_1449" data-name="Path 1449" d="M73.85,74.687l-.565-6.018c-.276-2.939-2.614-5.144-5.195-4.9l-3.882.364c-2.581.242-4.467,2.846-4.191,5.784l.565,6.018c.016.17.041.336.07.5a2.4,2.4,0,0,0-.015.557l.254,2.7,6.584,1.646-.062-.66,2.245-.211C72.24,80.229,74.125,77.626,73.85,74.687Z" fill="#efa490"/>
    <path id="Path_1450" data-name="Path 1450" d="M60.758,72.875s.4-5.152.708-4.426c.438,1.037.953,6.955,2.149,7.368,1.58.545,1.9-2.1,4.946-2.5s4.948.947,5.36,2.144a4.615,4.615,0,0,1-1.707,4.544c-1.64,1.185-4.759,1.123-4.759,1.123s-3.051.018-4.485-1.65C61.478,77.749,60.758,72.875,60.758,72.875Z" fill="#663434"/>
    <path id="Path_1451" data-name="Path 1451" d="M65.7,71.364a.879.879,0,1,0,.2-.642A.878.878,0,0,0,65.7,71.364Z" fill="#020202"/>
    <path id="Path_1452" data-name="Path 1452" d="M71.417,70.7a.751.751,0,1,0,.17-.549A.751.751,0,0,0,71.417,70.7Z" fill="#020202"/>
    <path id="Path_1453" data-name="Path 1453" d="M70.917,74.358s-.319,1.323-1.241,1.5-1.747-.79-1.877-1.585Z" fill="#fff"/>
    <path id="Path_1454" data-name="Path 1454" d="M69.782,70.206A10.576,10.576,0,0,0,71,72.212l-.958.184" fill="none" stroke="#663434" stroke-miterlimit="10" stroke-width="0.25"/>
    <path id="Path_1455" data-name="Path 1455" d="M65.346,70.283a4.233,4.233,0,0,1,.858-.415" fill="none" stroke="#663434" stroke-miterlimit="10" stroke-width="0.25"/>
    <path id="Path_1456" data-name="Path 1456" d="M71.606,69.3a7.056,7.056,0,0,1,.92.019" fill="none" stroke="#663434" stroke-miterlimit="10" stroke-width="0.25"/>
    <path id="Path_1457" data-name="Path 1457" d="M61.417,73.891l.274-4.781s12.788,1.225,16.344-5.547c3.3-6.286-1.355-9.258-3.69-8.129a9.786,9.786,0,0,0-3.328,2.97s1.745-2.911-.3-3.153-4.057,2.044-5.006,4.3c0,0-8.672.006-11.089,5.481s.285,8.943,6.1,13.818l.2-3.051Z" fill="#663434"/>
    <path id="Path_1458" data-name="Path 1458" d="M55.681,74.827a2.854,2.854,0,1,0,.094-1.11A2.865,2.865,0,0,0,55.681,74.827Z" fill="#efa490"/>
    <path id="Path_1459" data-name="Path 1459" d="M60.086,74.7a1.563,1.563,0,0,0-2.042-1.491" fill="#efa490"/>
    <path id="Path_1460" data-name="Path 1460" d="M60.086,74.7a1.563,1.563,0,0,0-2.042-1.491" fill="none" stroke="#663434" stroke-miterlimit="10" stroke-width="0.25"/>
    <path id="Path_1461" data-name="Path 1461" d="M138.838,57.485l-1.691-4.809s.935-4.862,1.01-6.293-.7-2.336-1.685-1.12a8.479,8.479,0,0,0-1.358,3.577,22.629,22.629,0,0,1-.8-2.846l-6.182,5.043c.035,4.247,3.7,10.63,3.7,10.63Z" fill="#dd9b80"/>
    <path id="Path_1462" data-name="Path 1462" d="M134.912,48.963l-.455.587a9.248,9.248,0,0,0-.634.889,5.581,5.581,0,0,0-.242,4.866" fill="none" stroke="#9d6050" stroke-miterlimit="10" stroke-width="0.25"/>
    <path id="Path_1463" data-name="Path 1463" d="M140.226,55.294s14.3,21.074,29.181,25.815l-7.714,16.314s-21.207-9.529-27.508-25.342l-4.272-10.422Z" fill="#fff"/>
    <path id="Path_1464" data-name="Path 1464" d="M140.226,55.294s14.3,21.074,29.181,25.815l-7.714,16.314s-21.207-9.529-27.508-25.342l-4.272-10.422Z" fill="none" stroke="#459c90" stroke-miterlimit="10" stroke-width="0.25"/>
    <path id="Path_1465" data-name="Path 1465" d="M145.793,68.178a2.67,2.67,0,1,0,.927,1.294A2.658,2.658,0,0,0,145.793,68.178Zm-1.472,4.155a2.032,2.032,0,1,1,1.821-1.449,2.056,2.056,0,0,1-1.821,1.448Z" fill="#459c90"/>
    <path id="Path_1466" data-name="Path 1466" d="M150.916,76.233a2.672,2.672,0,1,0,.926,1.294A2.663,2.663,0,0,0,150.916,76.233Zm-1.472,4.155a2.056,2.056,0,1,1,1.135-.443,2.055,2.055,0,0,1-1.135.442Z" fill="#459c90"/>
    <path id="Path_1467" data-name="Path 1467" d="M160.144,77.992a2.675,2.675,0,1,0,.926,1.294A2.659,2.659,0,0,0,160.144,77.992Zm-1.471,4.155a2.055,2.055,0,1,1,1.136-.441A2.035,2.035,0,0,1,158.673,82.146Z" fill="#459c90"/>
    <path id="Path_1468" data-name="Path 1468" d="M162.6,86.174a2.67,2.67,0,1,0,.927,1.294A2.659,2.659,0,0,0,162.6,86.174Zm-1.472,4.155a2.032,2.032,0,1,1,1.821-1.449,2.056,2.056,0,0,1-1.821,1.448Z" fill="#459c90"/>
    <path id="Path_1469" data-name="Path 1469" d="M144.812,61.343c-.007.031-.009.061-.018.091a2.033,2.033,0,1,1-1.976-2.6c-.154-.2-.3-.4-.445-.582a2.567,2.567,0,0,0-1,.4,2.656,2.656,0,1,0,3.9,3.266C145.119,61.717,144.964,61.528,144.812,61.343Z" fill="#459c90"/>
    <path id="Path_1470" data-name="Path 1470" d="M135.916,60.262a2.031,2.031,0,0,1-3.826.2c-.017-.04-.026-.081-.039-.121l-.547.337a2.655,2.655,0,1,0,4.445-2.746l-.543.336a2.059,2.059,0,0,1,.51,2Z" fill="#459c90"/>
    <path id="Path_1471" data-name="Path 1471" d="M135.834,65.976a2.631,2.631,0,0,0-3.852.74l.323.79a2.042,2.042,0,1,1,.976,2.378l.327.8a2.761,2.761,0,0,0,.367.07,2.659,2.659,0,0,0,1.861-4.774Z" fill="#459c90"/>
    <path id="Path_1472" data-name="Path 1472" d="M154.285,71.469a1.984,1.984,0,0,1-1.17.473,2.028,2.028,0,0,1-1.731-3.266l-.44-.448a2.672,2.672,0,0,0-.534,2.338,2.7,2.7,0,0,0,2.316,2,2.6,2.6,0,0,0,2.023-.672Z" fill="#459c90"/>
    <path id="Path_1473" data-name="Path 1473" d="M140.033,75.766a2.622,2.622,0,0,0-3.733.562c.117.2.239.4.36.587a2.027,2.027,0,1,1,2.088,2.982q.215.274.43.545a2.734,2.734,0,0,0,1.805-1.788,2.7,2.7,0,0,0-.95-2.888Z" fill="#459c90"/>
    <path id="Path_1474" data-name="Path 1474" d="M153.163,86.648a2.657,2.657,0,0,0-4.044,3.172q1.132.845,2.233,1.6a2.657,2.657,0,0,0,1.811-4.775ZM151.691,90.8a2.032,2.032,0,1,1,1.821-1.449A2.056,2.056,0,0,1,151.69,90.8Z" fill="#459c90"/>
    <path id="Path_1475" data-name="Path 1475" d="M168.058,82.167a2.053,2.053,0,0,1-2-1.254,2,2,0,0,1-.1-1.185c-.191-.092-.381-.187-.572-.283a2.612,2.612,0,0,0-.025,1.348,2.7,2.7,0,0,0,2.317,2,2.51,2.51,0,0,0,.987-.091l.418-.889A1.969,1.969,0,0,1,168.058,82.167Z" fill="#459c90"/>
    <path id="Path_1476" data-name="Path 1476" d="M214.107,153.561l-11.813,6.051-2.963-8.133L211.42,146.5Z" fill="#dd9b80"/>
    <path id="Path_1477" data-name="Path 1477" d="M233.734,161.938l-11.575-23.855-13.848,7.374,6.178,10.828,5.682-2.329Z" fill="#fff" stroke="#8055ba" stroke-miterlimit="10" stroke-width="0.25"/>
    <path id="Path_1478" data-name="Path 1478" d="M224.381,157.828l2.559-3.053" fill="none" stroke="#523190" stroke-miterlimit="10" stroke-width="0.25"/>
    <path id="Path_1479" data-name="Path 1479" d="M222.118,156.214l2.56-3.053" fill="none" stroke="#523190" stroke-miterlimit="10" stroke-width="0.25"/>
    <path id="Path_1480" data-name="Path 1480" d="M220.823,154.794s.486,7.355-1.747,7.19C215.482,161.719,220.823,154.794,220.823,154.794Z" fill="none" stroke="#523190" stroke-miterlimit="10" stroke-width="0.25"/>
    <path id="Path_1481" data-name="Path 1481" d="M215.568,159.042l5.285-4.467" fill="none" stroke="#523190" stroke-miterlimit="10" stroke-width="0.25"/>
    <path id="Path_1482" data-name="Path 1482" d="M216.187,145.573a3.108,3.108,0,1,1-.965.734A3.105,3.105,0,0,1,216.187,145.573Z" fill="#f8da35"/>
    <path id="Path_1483" data-name="Path 1483" d="M216.282,141.212a5.541,5.541,0,0,0,8.249,1.76l-2.37-4.888Z" fill="#fff" stroke="#8055ba" stroke-miterlimit="10" stroke-width="0.25"/>
    <path id="Path_1484" data-name="Path 1484" d="M188.569,165.587s-3.826-1.141-8.182-7.991-18.1-26.036-18.1-26.036l21.971-19.1,9.911,35.78,6.684.777,3.845,11.621S192.564,168.177,188.569,165.587Z" fill="#8055ba"/>
    <path id="Path_1485" data-name="Path 1485" d="M163.4,132.087v-1.494l-.63.547v1.1l.63.883Z" fill="#fff"/>
    <path id="Path_1486" data-name="Path 1486" d="M200.707,162.859c.216-.111.425-.218.63-.325v-4.689h2.442l-.209-.63h-2.233v-6.748l-.479-1.45-.151-.017v.628h-6.958v-2.913l-.63-2.272v5.188h-6.956v-6.957h6.467l-.175-.63h-6.292v-6.957h4.365l-.174-.63h-4.191V127.5h2.263l-.175-.63h-2.088v-6.961h.161l-.79-2.856v2.226h-6.957V117.4l-.63.548v1.33h-1.531l-.725.63h2.256v6.957H170.99V124l-.631.548v2.322h-2.667l-.725.63h3.4v6.957h-6.005l.448.63h5.557v6.957h-.633l.444.63h.19v.271l.631.9v-1.168h6.956v6.957h-2.922l.434.63h2.488v3.643q.325.481.631.937v-4.579h6.956v6.957h-5.392l.246.382.161.249h4.984v5.854c.221.183.43.348.631.5v-6.353h6.957V164.8h-6.09a9.121,9.121,0,0,0,1.147.63h4.939v.4c.208-.047.418-.1.63-.155v-.243h.847c.593-.185,1.2-.395,1.8-.63h-2.651v-6.957h6.957v5.016Zm-22.761-20.818h-6.957v-6.957h6.957Zm0-13.743v6.156h-6.957V127.5h6.957Zm7.587,16.489v4.84h-6.957V142.67h6.957Zm0-2.746h-6.957v-6.957h6.957Zm0-13.743v6.156h-6.957V127.5h6.957Zm0-1.431h-6.957v-6.958h6.957Zm7.587,30.349h-6.957v-6.957h6.957Zm.63,0v-6.957h6.957v6.957Z" fill="#fff"/>
    <path id="Path_1487" data-name="Path 1487" d="M200.857,149.017l3.846,11.622s-12.139,7.539-16.135,4.948c0,0-3.826-1.142-8.182-7.991s-18.1-26.036-18.1-26.036" fill="none" stroke="#523190" stroke-miterlimit="10" stroke-width="0.25"/>
    <path id="Path_1488" data-name="Path 1488" d="M167.618,197.058l-1.612-19.766,9.483-.44-.111,19.533Z" fill="#dd9b80"/>
    <path id="Path_1489" data-name="Path 1489" d="M165.328,202.6l-1.687,3.019L156,218.646l24.066-12.077-.734-15.953-14.777,2.2-.225,11.566" fill="#fff"/>
    <path id="Path_1490" data-name="Path 1490" d="M165.328,202.6l-1.687,3.019L156,218.646l24.066-12.077-.734-15.953-14.777,2.2-.225,11.566" fill="none" stroke="#8055ba" stroke-miterlimit="10" stroke-width="0.25"/>
    <path id="Path_1491" data-name="Path 1491" d="M159.893,209.665l3.356,2.269" fill="none" stroke="#523190" stroke-miterlimit="10" stroke-width="0.25"/>
    <path id="Path_1492" data-name="Path 1492" d="M161.473,207.449l3.355,2.269" fill="none" stroke="#523190" stroke-miterlimit="10" stroke-width="0.25"/>
    <path id="Path_1493" data-name="Path 1493" d="M162.9,206.161s-7.724.815-7.671-1.3C155.314,201.451,162.9,206.161,162.9,206.161Z" fill="none" stroke="#523190" stroke-miterlimit="10" stroke-width="0.25"/>
    <path id="Path_1494" data-name="Path 1494" d="M158.139,201.4l4.994,4.776" fill="none" stroke="#523190" stroke-miterlimit="10" stroke-width="0.25"/>
    <path id="Path_1495" data-name="Path 1495" d="M175.093,197.589a3.655,3.655,0,1,1-3.7-3.205,3.446,3.446,0,0,1,2.514.834,3.448,3.448,0,0,1,1.181,2.371Z" fill="#f8da35"/>
    <path id="Path_1496" data-name="Path 1496" d="M179.666,199.618a6.28,6.28,0,0,0-6.1,5.889,13.066,13.066,0,0,0,.827,3.914l5.678-2.835Z" fill="#fff" stroke="#8055ba" stroke-miterlimit="10" stroke-width="0.25"/>
    <path id="Path_1497" data-name="Path 1497" d="M163.7,179.607l13.855.12,7.917-62.455-26.358.9Z" fill="#8055ba"/>
    <path id="Path_1498" data-name="Path 1498" d="M181.179,146.464v4.673l.672-5.3h-.042v-6.957h.924l.08-.63h-1V131.29h1.885l.08-.63h-1.965V123.7h2.847l.08-.63h-2.927V117.4l-.631.021v5.654h-6.956v-5.417l-.631.021v5.4h-6.956v-5.16l-.631.022v5.137h-6.525l.048.63H166v6.957h-5.959l.048.63H166v6.957h-5.393l.048.63H166v6.957h-4.826l.048.63H166v6.958h-4.26l.047.63H166v6.957h-3.694l.048.63H166V168.6h-3.127l.048.63H166v6.957h-2.561l.047.63H166v2.814l.631.006v-2.82h6.956V179.7l.631,0v-2.886h3.7l.08-.63h-3.782v-6.959h4.664l.079-.63h-4.741v-6.957h5.63l.08-.63h-5.706v-6.957h6.587l.08-.63h-6.667v-6.957Zm-6.956-18.175V123.7h6.956v6.957h-6.956Zm0,3h6.956v6.957h-6.956Zm0,14.065v-6.478h6.956v6.957h-6.956Zm-.631,30.828h-6.956v-6.954h6.956Zm0-7.587h-6.956v-6.957h6.956Zm0-9.54v1.953h-6.956v-6.957h6.956Zm0-5.63h-6.956v-6.957h6.956Zm0-12.428v4.84h-6.956v-6.957h6.956Zm0-2.746h-6.956v-6.957h6.956Zm0-13.743v6.156h-6.956V123.7h6.956Z" fill="#fff"/>
    <path id="Path_1499" data-name="Path 1499" d="M171.617,121.084s1.643,7.649,8.594,6.5" fill="none" stroke="#523190" stroke-miterlimit="10" stroke-width="0.25"/>
    <path id="Path_1500" data-name="Path 1500" d="M163.7,179.606l13.855.121,7.917-62.456" fill="none" stroke="#523190" stroke-miterlimit="10" stroke-width="0.25"/>
    <path id="Path_1501" data-name="Path 1501" d="M157.565,118.646c-.042-.856-.077-1.719-.1-2.591-.312-15.113,3.936-29.81,9-35.4,1.629-1.8,3.235-2.32,4.91-1.883,7.875,2.058,15.022,16.693,15.434,36.678.018.872.019,1.735.012,2.591Z" fill="#fff" stroke="#459c90" stroke-miterlimit="10" stroke-width="0.2"/>
    <path id="Path_1502" data-name="Path 1502" d="M169.979,87.317a2.669,2.669,0,1,0,1.258.975A2.66,2.66,0,0,0,169.979,87.317Zm-.225,4.4a2.056,2.056,0,1,1,.961-.747A2.033,2.033,0,0,1,169.754,91.718Z" fill="#459c90"/>
    <path id="Path_1503" data-name="Path 1503" d="M163.2,106.428a2.673,2.673,0,1,0,1.258.977A2.659,2.659,0,0,0,163.2,106.428Zm-.226,4.4a2.033,2.033,0,1,1,1.332-1.909,2.058,2.058,0,0,1-1.336,1.909Z" fill="#459c90"/>
    <path id="Path_1504" data-name="Path 1504" d="M169.427,112.626a2.674,2.674,0,1,0,1.257.977A2.669,2.669,0,0,0,169.427,112.626Zm-.226,4.4a2.032,2.032,0,1,1,1.332-1.908,2.057,2.057,0,0,1-1.332,1.908Z" fill="#459c90"/>
    <path id="Path_1505" data-name="Path 1505" d="M180.178,109.085a2.674,2.674,0,1,0,1.257.977A2.672,2.672,0,0,0,180.178,109.085Zm-.226,4.4a2.052,2.052,0,1,1,.962-.747,2.066,2.066,0,0,1-.962.748Z" fill="#459c90"/>
    <path id="Path_1506" data-name="Path 1506" d="M164.62,85.7a2.646,2.646,0,0,0,1.367-4.49c-.131.161-.261.331-.391.5a2.017,2.017,0,0,1-2.04,3.32c-.1.185-.192.369-.286.561A2.711,2.711,0,0,0,164.62,85.7Z" fill="#459c90"/>
    <path id="Path_1507" data-name="Path 1507" d="M161.823,95.653a2.66,2.66,0,0,0,.422-5.106,2.564,2.564,0,0,0-.955-.157c-.073.208-.144.423-.215.635a1.939,1.939,0,0,1,.611.018,2.031,2.031,0,1,1-1.679,3.541c-.058.216-.115.436-.171.655A2.718,2.718,0,0,0,161.823,95.653Z" fill="#459c90"/>
    <path id="Path_1508" data-name="Path 1508" d="M160.759,116.368a2.7,2.7,0,0,0-1.735-2.494,2.621,2.621,0,0,0-1.567-.081v.657a1.961,1.961,0,0,1,1.013-.08,2.029,2.029,0,1,1-.915,3.951c.005.109.007.219.012.328l1.966-.041a2.731,2.731,0,0,0,1.226-2.24Z" fill="#459c90"/>
    <path id="Path_1509" data-name="Path 1509" d="M186.819,117.842v-.735a1.966,1.966,0,0,1-.541.3,2.032,2.032,0,0,1-2.437-.856,2.03,2.03,0,0,1-.152-1.795,2,2,0,0,1,3.072-.894c-.01-.252-.021-.5-.033-.753-.074-.035-.145-.075-.223-.1a2.654,2.654,0,1,0-1.5,5.077l1.272-.026A2.543,2.543,0,0,0,186.819,117.842Z" fill="#459c90"/>
    <path id="Path_1510" data-name="Path 1510" d="M158.083,120.221l28.635-.591a2.06,2.06,0,1,0-.085-4.119L158,116.1a2.06,2.06,0,0,0,.085,4.119Z" fill="#459c90"/>
    <path id="Path_1511" data-name="Path 1511" d="M156.707,120.079a1.307,1.307,0,0,0,.5.145v-4.1a1.3,1.3,0,0,0-.5.131Z" fill="#9fe0e2"/>
    <path id="Path_1512" data-name="Path 1512" d="M158.89,120.2l.5-.011v-4.121l-.5.01Z" fill="#9fe0e2"/>
    <path id="Path_1513" data-name="Path 1513" d="M161.072,120.158l.5-.011v-4.121l-.5.011Z" fill="#9fe0e2"/>
    <path id="Path_1514" data-name="Path 1514" d="M163.25,120.114l.5-.011v-4.121l-.5.011Z" fill="#9fe0e2"/>
    <path id="Path_1515" data-name="Path 1515" d="M165.435,120.069l.5-.01v-4.121l-.5.011Z" fill="#9fe0e2"/>
    <path id="Path_1516" data-name="Path 1516" d="M167.619,120.024l.5-.011v-4.121l-.5.011Z" fill="#9fe0e2"/>
    <path id="Path_1517" data-name="Path 1517" d="M169.8,119.978l.5-.01v-4.121l-.5.009Z" fill="#9fe0e2"/>
    <path id="Path_1518" data-name="Path 1518" d="M171.983,119.933l.5-.011V115.8l-.5.011Z" fill="#9fe0e2"/>
    <path id="Path_1519" data-name="Path 1519" d="M174.165,119.889l.5-.01v-4.121l-.5.011Z" fill="#9fe0e2"/>
    <path id="Path_1520" data-name="Path 1520" d="M176.348,119.844l.5-.01v-4.121l-.5.011Z" fill="#9fe0e2"/>
    <path id="Path_1521" data-name="Path 1521" d="M178.526,119.8l.5-.011v-4.121l-.5.011Z" fill="#9fe0e2"/>
    <path id="Path_1522" data-name="Path 1522" d="M180.712,119.753l.5-.011v-4.121l-.5.011Z" fill="#9fe0e2"/>
    <path id="Path_1523" data-name="Path 1523" d="M182.9,119.708l.5-.011v-4.121l-.5.01Z" fill="#9fe0e2"/>
    <path id="Path_1524" data-name="Path 1524" d="M185.077,119.664l.5-.01v-4.121l-.5.01Z" fill="#9fe0e2"/>
    <path id="Path_1525" data-name="Path 1525" d="M187.259,115.5v4.122h.2a1.283,1.283,0,0,0,.308-.047v-4.016a1.32,1.32,0,0,0-.4-.057Z" fill="#9fe0e2"/>
    <path id="Path_1526" data-name="Path 1526" d="M153.774,102.562s-12.086-3.745-14.015-4.959-.884-2.384.646-1.679c0,0-1.487-.593-1.449-1.219s1.269-.574,2.559-.014c0,0-2.47-.728-2.371-1.487s1.51-.537,2.906.057c0,0-2.371-.9-2.173-1.722s2.435-.641,6.17,1.153c0,0-2.858-1.9-2.4-2.723s4.756,1.976,6.561,2.923,6.711,2.779,6.711,2.779Z" fill="#dd9b80"/>
    <path id="Path_1527" data-name="Path 1527" d="M140.063,95.822q1.857.911,3.753,1.727" fill="none" stroke="#9d6050" stroke-miterlimit="10" stroke-width="0.25"/>
    <path id="Path_1528" data-name="Path 1528" d="M140.689,94.42,144.715,96" fill="none" stroke="#9d6050" stroke-miterlimit="10" stroke-width="0.25"/>
    <path id="Path_1529" data-name="Path 1529" d="M141.1,92.892a37.278,37.278,0,0,1,4.232,1.877" fill="none" stroke="#9d6050" stroke-miterlimit="10" stroke-width="0.25"/>
    <path id="Path_1530" data-name="Path 1530" d="M192.128,97.426c-5.927-12.992-20.586-18.959-20.586-18.959l1.124,10.024,3.161,5.805-19.044-.3-5.271,9.619C177.266,116.494,197.8,109.873,192.128,97.426Z" fill="#fff"/>
    <path id="Path_1531" data-name="Path 1531" d="M171.542,78.466s14.659,5.966,20.586,18.959c5.677,12.446-14.863,19.064-40.618,6.186l5.271-9.619,21.341.339" fill="none" stroke="#459c90" stroke-miterlimit="10" stroke-width="0.2"/>
    <path id="Path_1532" data-name="Path 1532" d="M172.666,88.49l3.158,5.805" fill="none" stroke="#459c90" stroke-miterlimit="10" stroke-width="0.2"/>
    <path id="Path_1533" data-name="Path 1533" d="M165.678,98.637a2.03,2.03,0,1,1-1.844-1.834,2.051,2.051,0,0,1,1.844,1.834.315.315,0,0,0,.628-.059,2.662,2.662,0,1,0-1.9,2.8,2.7,2.7,0,0,0,1.9-2.8.315.315,0,0,0-.628.059Z" fill="#459c90"/>
    <path id="Path_1534" data-name="Path 1534" d="M171.218,105.485a2.03,2.03,0,1,1-1.844-1.835,2.054,2.054,0,0,1,1.844,1.835.315.315,0,0,0,.627-.06,2.66,2.66,0,1,0-1.9,2.8,2.7,2.7,0,0,0,1.9-2.8.314.314,0,0,0-.343-.276.315.315,0,0,0-.284.336Z" fill="#459c90"/>
    <path id="Path_1535" data-name="Path 1535" d="M179.485,100.366a2.03,2.03,0,1,1-1.845-1.834,2.05,2.05,0,0,1,1.845,1.834.315.315,0,0,0,.628-.059,2.661,2.661,0,1,0-1.906,2.8,2.7,2.7,0,0,0,1.906-2.8.316.316,0,0,0-.554-.167A.32.32,0,0,0,179.485,100.366Z" fill="#459c90"/>
    <path id="Path_1536" data-name="Path 1536" d="M187.46,103.452a2.03,2.03,0,1,1-1.845-1.834,2.05,2.05,0,0,1,1.845,1.834.315.315,0,0,0,.628-.059,2.661,2.661,0,1,0-1.906,2.8,2.7,2.7,0,0,0,1.906-2.8.316.316,0,0,0-.343-.277.315.315,0,0,0-.285.336Z" fill="#459c90"/>
    <path id="Path_1537" data-name="Path 1537" d="M186.653,94.853a2.029,2.029,0,1,1-1.845-1.834,2.05,2.05,0,0,1,1.845,1.834.315.315,0,0,0,.628-.059,2.662,2.662,0,1,0-1.906,2.8,2.7,2.7,0,0,0,1.906-2.8.315.315,0,0,0-.628.059Z" fill="#459c90"/>
    <path id="Path_1538" data-name="Path 1538" d="M175.59,83.412a2.052,2.052,0,1,1-.6-1.247,2.033,2.033,0,0,1,.6,1.247.315.315,0,0,0,.627-.059,2.7,2.7,0,0,0-1.962-2.32,2.659,2.659,0,1,0,1.962,2.32.315.315,0,0,0-.343-.277.315.315,0,0,0-.284.336Z" fill="#459c90"/>
    <path id="Path_1539" data-name="Path 1539" d="M175.755,88.755a2.677,2.677,0,0,0-2.579.705l.013.116.278.511a2.035,2.035,0,1,1,1.771,3.25l.32.593c.085-.016.17-.027.254-.05a2.659,2.659,0,0,0-.057-5.124Z" fill="#459c90"/>
    <path id="Path_1540" data-name="Path 1540" d="M185.17,87.707a1.922,1.922,0,0,1-.494.336,2.031,2.031,0,0,1-2.707-2.708,2,2,0,0,1,.2-.322c-.164-.133-.328-.262-.494-.4-.022.03-.048.055-.069.086a2.659,2.659,0,0,0,2.939,4.055,2.525,2.525,0,0,0,1.066-.618C185.464,87.994,185.317,87.852,185.17,87.707Z" fill="#459c90"/>
    <path id="Path_1541" data-name="Path 1541" d="M191.777,101.618a2.03,2.03,0,0,1,.71-3.308q-.1-.288-.229-.58a2.623,2.623,0,0,0-1.223.967,2.69,2.69,0,0,0,.046,3.07,2.662,2.662,0,0,0,1.858,1.061q.06-.3.1-.619A2.038,2.038,0,0,1,191.777,101.618Z" fill="#459c90"/>
    <path id="Path_1542" data-name="Path 1542" d="M178,107.52a2.671,2.671,0,0,0-2.882,1.068,2.715,2.715,0,0,0-.428,1.9c.217.016.435.031.65.043a2.027,2.027,0,1,1,3.994-.636,2.078,2.078,0,0,1-.052.653c.214-.011.429-.023.639-.037a2.578,2.578,0,0,0-1.921-3Z" fill="#459c90"/>
    <path id="Path_1543" data-name="Path 1543" d="M159.969,107.234a2.738,2.738,0,0,0,.374-1.591,2.649,2.649,0,0,0-5.229-.34c.2.086.389.167.583.25a1.97,1.97,0,0,1,.164-.536,2.029,2.029,0,0,1,3.852.684,2.094,2.094,0,0,1-.341,1.316C159.572,107.091,159.771,107.164,159.969,107.234Z" fill="#459c90"/>
    <path id="Path_1544" data-name="Path 1544" d="M155.417,101.384a2.653,2.653,0,0,0,.092-5.071l-.305.557a2.028,2.028,0,0,1-.194,3.961,2.007,2.007,0,0,1-.908-.056,2.028,2.028,0,0,1-.793-.447l-.307.561a2.71,2.71,0,0,0,2.415.5Z" fill="#459c90"/>
    <path id="Path_1545" data-name="Path 1545" d="M157.22,94.359a2.693,2.693,0,0,0,2.894.988,2.587,2.587,0,0,0,1.567-1.273l-.728-.012a1.968,1.968,0,0,1-.709.565,2.055,2.055,0,0,1-2.328-.414,1.9,1.9,0,0,1-.169-.2L157,94A2.611,2.611,0,0,0,157.22,94.359Z" fill="#459c90"/>
    <path id="Path_1546" data-name="Path 1546" d="M171.325,97.015a2.683,2.683,0,0,0,1.9-2.759l-.632-.01v.026a2.03,2.03,0,1,1-4.031-.089l-.623-.01a2.639,2.639,0,0,0,.483,1.857,2.691,2.691,0,0,0,2.9.985Z" fill="#459c90"/>
    <path id="Path_1547" data-name="Path 1547" d="M167.086,80.529h6.046V69.761h-6.046Z" fill="#dd9b80"/>
    <path id="Path_1548" data-name="Path 1548" d="M179.691,62.189a1.721,1.721,0,1,0-.041-.668A1.73,1.73,0,0,0,179.691,62.189Z" fill="#459c90"/>
    <path id="Path_1549" data-name="Path 1549" d="M184.872,60.881c-1.569-1.673-4.162-6.387-1.807-11.123,3.618-7.277,8.858-1.8,12.363-2.509s2.191-14.395,12.212-14.395c7.75,0,15.682,9.81,10.688,17.3-5.03,7.548-14.933,3.074-15.4,8.643C202.3,66.433,191.8,68.274,184.872,60.881Z" fill="none" stroke="#663434" stroke-miterlimit="10" stroke-width="0.25"/>
    <path id="Path_1550" data-name="Path 1550" d="M173.4,70.078c-.041.154-.088.3-.14.45a2.245,2.245,0,0,1-.072.516l.212-.965-7.013,3.358.008-.031-2.032-.534c-2.336-.614-3.676-3.293-2.976-5.953l1.432-5.448c.7-2.66,3.183-4.333,5.519-3.72l3.515.925c2.336.614,3.675,3.293,2.976,5.953Z" fill="#fff"/>
    <path id="Path_1551" data-name="Path 1551" d="M167.3,73.674l-2.935-.8c-2.336-.614-3.676-3.293-2.977-5.953l1.433-5.447c.7-2.66,3.183-4.333,5.519-3.719l3.515.924c2.336.614,3.675,3.293,2.976,5.953L173.4,70.077c-.041.154-.088.3-.141.449a2.19,2.19,0,0,1-.071.516" fill="#dd9b80"/>
    <path id="Path_1552" data-name="Path 1552" d="M162.626,62.749a14.074,14.074,0,0,1-1.662,1.7c-.761.6-.76.488-.76.488a9.779,9.779,0,0,0,1.752,1.2C162.521,66.336,162.626,62.749,162.626,62.749Z" fill="#dd9b80"/>
    <path id="Path_1553" data-name="Path 1553" d="M166.208,65.173a.81.81,0,1,1-.182-.592A.808.808,0,0,1,166.208,65.173Z" fill="#010101"/>
    <path id="Path_1554" data-name="Path 1554" d="M169.93,68.926a2.355,2.355,0,1,1-.093-.914A2.355,2.355,0,0,1,169.93,68.926Z" fill="#d87d79"/>
    <path id="Path_1555" data-name="Path 1555" d="M161.345,69.664a1.845,1.845,0,0,0,2.3-.368" fill="none" stroke="#9d6050" stroke-miterlimit="10" stroke-width="0.25"/>
    <path id="Path_1556" data-name="Path 1556" d="M162.339,63.074a6.7,6.7,0,0,1-2.135,1.86,5.529,5.529,0,0,0,1.279.884" fill="none" stroke="#9d6050" stroke-miterlimit="10" stroke-width="0.25"/>
    <path id="Path_1557" data-name="Path 1557" d="M165.61,63.311l1.2,1.443" fill="none" stroke="#9d6050" stroke-miterlimit="10" stroke-width="0.25"/>
    <path id="Path_1558" data-name="Path 1558" d="M173.035,68.876l-.46-1.727a18.551,18.551,0,0,1-9.384-7.618c-3.852-6,1.985-10.988,6.816-8.036,2.162,1.322,3.761,5.387,3.761,5.387s8.634,4.066,5.643,12.306a6.237,6.237,0,0,1-6.273,5.016Z" fill="#9d6050"/>
    <path id="Path_1559" data-name="Path 1559" d="M176.83,69.547a2.681,2.681,0,1,1-.468-2A2.691,2.691,0,0,1,176.83,69.547Z" fill="#dd9b80"/>
    <path id="Path_1560" data-name="Path 1560" d="M172.684,69.207a1.469,1.469,0,0,1,1.988-1.3" fill="none" stroke="#9d6050" stroke-miterlimit="10" stroke-width="0.275"/>
    <path id="Path_1561" data-name="Path 1561" d="M167.348,81.007l5.575-.057a2.646,2.646,0,0,0-.053-5.292l-5.576.057a2.646,2.646,0,1,0,.054,5.293Z" fill="#459c90"/>
    <path id="Path_1562" data-name="Path 1562" d="M166.651,80.911V75.8a2.64,2.64,0,0,0-.505.189V80.72A2.667,2.667,0,0,0,166.651,80.911Z" fill="#9fe0e2"/>
    <path id="Path_1563" data-name="Path 1563" d="M174.247,80.568V76.035a2.651,2.651,0,0,0-.5-.231V80.8A2.659,2.659,0,0,0,174.247,80.568Z" fill="#9fe0e2"/>
    <path id="Path_1564" data-name="Path 1564" d="M172.324,80.939V75.66l-.505,0v5.3l.494,0A.132.132,0,0,0,172.324,80.939Z" fill="#9fe0e2"/>
    <path id="Path_1565" data-name="Path 1565" d="M170.4,80.974V75.679l-.5,0v5.3l.5,0Z" fill="#9fe0e2"/>
    <path id="Path_1566" data-name="Path 1566" d="M168.5,80.994V75.7l-.505,0V81l.5,0Z" fill="#9fe0e2"/>
    <path id="Path_1567" data-name="Path 1567" d="M125.692,38.745s9.328-.763,11.3.839c1.341,1.086-5.136,13.509-7.761,16.383s-7.8,3.613-7.8,3.613Z" fill="none" stroke="#f8da35" stroke-miterlimit="10" stroke-width="1"/>
    <path id="Path_1568" data-name="Path 1568" d="M100.642,38.745s-9.327-.763-11.3.839C88,40.67,94.481,53.092,97.1,55.966s7.8,3.613,7.8,3.613Z" fill="none" stroke="#f8da35" stroke-miterlimit="10" stroke-width="1"/>
    <path id="Path_1569" data-name="Path 1569" d="M127.922,34.118H98.412s-.547,14.892,1.533,19.874c1.985,4.754,5.609,8.63,12.7,10.034h1.043c7.091-1.4,10.715-5.279,12.7-10.034C128.47,49.009,127.922,34.118,127.922,34.118Z" fill="#f8da35"/>
    <path id="Path_1570" data-name="Path 1570" d="M113.714,40.059l1.633,3.308a.612.612,0,0,0,.46.334l3.655.53a.609.609,0,0,1,.306.138.611.611,0,0,1,.033.905l-2.643,2.575a.613.613,0,0,0-.175.541l.624,3.637a.616.616,0,0,1-.036.334.612.612,0,0,1-.853.31l-3.266-1.717a.607.607,0,0,0-.284-.07.614.614,0,0,0-.285.07l-3.265,1.717a.611.611,0,0,1-.889-.644l.624-3.637a.6.6,0,0,0-.021-.292.616.616,0,0,0-.155-.249l-2.642-2.575a.606.606,0,0,1-.167-.291.617.617,0,0,1,.012-.336.614.614,0,0,1,.494-.416l3.655-.53a.61.61,0,0,0,.27-.11.6.6,0,0,0,.189-.224l1.633-3.308a.61.61,0,0,1,.546-.339.612.612,0,0,1,.322.092A.6.6,0,0,1,113.714,40.059Z" fill="#eaae35"/>
    <path id="Path_1571" data-name="Path 1571" d="M98.462,36.387h29.41" fill="none" stroke="#eaae35" stroke-miterlimit="10" stroke-width="0.25"/>
    <path id="Path_1572" data-name="Path 1572" d="M104.205,56.4a13.407,13.407,0,0,0,2.146,1.728" fill="none" stroke="#fff" stroke-miterlimit="10" stroke-width="0.3"/>
    <path id="Path_1573" data-name="Path 1573" d="M100.644,39.722s-.219,8.032.9,12.41a7.352,7.352,0,0,0,.543,1.442" fill="none" stroke="#fff" stroke-miterlimit="10" stroke-width="0.3"/>
    <path id="Path_1574" data-name="Path 1574" d="M113.367,75.931a1.019,1.019,0,0,0-.4,0c-8.327.838-10.083,5.858-10.083,5.858H123.45S121.695,76.769,113.367,75.931Z" fill="#f8da35"/>
    <path id="Path_1575" data-name="Path 1575" d="M115.1,62h-3.86V78.669h3.86Z" fill="#f8da35"/>
    <path id="Path_1576" data-name="Path 1576" d="M124.028,81.791H102.306A1.211,1.211,0,0,0,101.1,83h0a1.211,1.211,0,0,0,1.211,1.211h21.722A1.212,1.212,0,0,0,125.239,83h0A1.212,1.212,0,0,0,124.028,81.791Z" fill="#f8da35"/>
    <path id="Path_1577" data-name="Path 1577" d="M102.882,81.791h20.709" fill="none" stroke="#eaae35" stroke-miterlimit="10" stroke-width="0.25"/>
    <path id="Path_1578" data-name="Path 1578" d="M115.363,65.977H110.97a1.58,1.58,0,0,1,0-3.161h4.393a1.58,1.58,0,0,1,0,3.161Z" fill="#f8da35"/>
    <path id="Path_1579" data-name="Path 1579" d="M109.912,63.311H116.2" fill="none" stroke="#eaae35" stroke-miterlimit="10" stroke-width="0.25"/>
    <path id="Path_1580" data-name="Path 1580" d="M111.292,65.976h3.751" fill="none" stroke="#eaae35" stroke-miterlimit="10" stroke-width="0.25"/>
    <path id="Path_1581" data-name="Path 1581" d="M135.862,40.457l.007-.039a.173.173,0,0,0-.007.039Z" fill="none" stroke="#eaae35" stroke-miterlimit="10" stroke-width="0.25"/>
    <path id="Path_1582" data-name="Path 1582" d="M138.069,38.408a7.027,7.027,0,0,0-4.007-1.277A42.423,42.423,0,0,0,127.984,37l.32.32c-.009-1.066-.023-2.133-.061-3.2a.322.322,0,0,0-.1-.225.327.327,0,0,0-.225-.1H98.412a.327.327,0,0,0-.32.32c-.038,1.069-.051,2.14-.06,3.208l.32-.32a48.908,48.908,0,0,0-5.482.061,8.961,8.961,0,0,0-4.218,1.056c-1.241.805-1.185,2.2-.874,3.5a25.611,25.611,0,0,0,1.814,4.691,57.146,57.146,0,0,0,4.8,8.73A13.915,13.915,0,0,0,97.2,58.224a13.715,13.715,0,0,0,3.539,1.938,17.377,17.377,0,0,0,2.25.685q.556.13,1.119.223a4.932,4.932,0,0,1,.951.137,7.626,7.626,0,0,1,1.016.684q.54.333,1.106.622a19.679,19.679,0,0,0,2.577,1.08l-.141-.535a1.94,1.94,0,0,0-.248,2.371,2.053,2.053,0,0,0,1.864.874l-.32-.32V76.188l.235-.309a13.148,13.148,0,0,0-6.884,3.373,7.025,7.025,0,0,0-1.694,2.458l.31-.235a2.47,2.47,0,0,0-1.651.288,1.852,1.852,0,0,0-.432,1.778c.18.857.949,1,1.675,1h20.99c.636,0,1.35.1,1.806-.457a1.967,1.967,0,0,0,.025-2.115c-.453-.593-1.185-.494-1.845-.494l.309.235a7.025,7.025,0,0,0-1.694-2.458,13.148,13.148,0,0,0-6.884-3.373l.235.309V65.976l-.32.32a2.052,2.052,0,0,0,1.864-.874,1.94,1.94,0,0,0-.248-2.371l-.141.535A18.7,18.7,0,0,0,119.9,62.1a12.081,12.081,0,0,1,1.374-.9,10.019,10.019,0,0,1,1.566-.251,15.387,15.387,0,0,0,6.178-2.657,18.536,18.536,0,0,0,4.445-5.7,68.808,68.808,0,0,0,3.753-7.332,20.743,20.743,0,0,0,1.411-3.942,3,3,0,0,0-.558-2.91.321.321,0,0,0-.454.453c.8.806.488,2.034.213,3.008a26.953,26.953,0,0,1-1.408,3.618,68.409,68.409,0,0,1-3.39,6.571,19.081,19.081,0,0,1-4.163,5.549,14.509,14.509,0,0,1-5.9,2.667c-.3.065-.593.125-.889.174-.263.042-.557,0-.805.042-.424.079-.881.561-1.251.79a17.473,17.473,0,0,1-3.619,1.693.323.323,0,0,0-.22.228.337.337,0,0,0,0,.164.331.331,0,0,0,.08.143,1.285,1.285,0,0,1-.006,1.778,1.5,1.5,0,0,1-1.157.371.326.326,0,0,0-.225.1.331.331,0,0,0-.1.225V76.184a.322.322,0,0,0,.235.308,12.568,12.568,0,0,1,6.6,3.209,7.079,7.079,0,0,1,1.529,2.173.331.331,0,0,0,.308.235c.579,0,1.378-.145,1.468.643.058.512-.04,1.076-.646,1.139a11.216,11.216,0,0,1-1.151,0H103.713c-.524,0-1.066.041-1.59,0s-.707-.4-.707-.889.145-.842.685-.889c.256-.023.525,0,.782,0a.33.33,0,0,0,.308-.235,5.31,5.31,0,0,1,.319-.63,7.814,7.814,0,0,1,1.21-1.545,12.565,12.565,0,0,1,6.6-3.209.322.322,0,0,0,.169-.115.316.316,0,0,0,.066-.193V65.976a.325.325,0,0,0-.32-.32,1.492,1.492,0,0,1-1.157-.371,1.284,1.284,0,0,1-.005-1.778.329.329,0,0,0,.079-.143.325.325,0,0,0,0-.164.331.331,0,0,0-.081-.143.324.324,0,0,0-.14-.085A17.243,17.243,0,0,1,105.882,61a3.6,3.6,0,0,0-.657-.469,4.012,4.012,0,0,0-.759-.051,15.7,15.7,0,0,1-1.868-.4,12.444,12.444,0,0,1-6.618-3.968,43.719,43.719,0,0,1-4.628-7.641c-.734-1.437-1.421-2.9-2.038-4.389-.266-.645-.527-1.294-.733-1.961a4.694,4.694,0,0,1-.3-2.568c.258-.86,1.193-1.206,1.976-1.438a12.18,12.18,0,0,1,2.61-.417,48.909,48.909,0,0,1,5.482-.061.325.325,0,0,0,.32-.32c.009-1.07.023-2.139.06-3.208l-.32.32h29.51l-.32-.32c.038,1.066.052,2.133.061,3.2a.324.324,0,0,0,.32.32,41.672,41.672,0,0,1,5.49.078c1.394.123,3.022.2,4.141,1.146C137.928,39.125,138.384,38.674,138.069,38.408Z" fill="#eaae35"/>
    <path id="Path_1583" data-name="Path 1583" d="M97.986,54.544a42.875,42.875,0,0,1-4.117-6.76,27.176,27.176,0,0,1-3.1-7.453l-.224.4a11.086,11.086,0,0,1,3.52-.525c1.427-.069,2.857-.053,4.285.007l-.32-.32a80.389,80.389,0,0,0,.569,9.669,21.677,21.677,0,0,0,.783,3.838,16.458,16.458,0,0,0,2.2,4.26l.361-.47a9.49,9.49,0,0,1-3.961-2.639c-.268-.314-.72.141-.453.453a10.153,10.153,0,0,0,4.247,2.8.323.323,0,0,0,.185-.008.318.318,0,0,0,.15-.108.323.323,0,0,0,.067-.173.335.335,0,0,0-.04-.181,15.781,15.781,0,0,1-2.157-4.173,22.3,22.3,0,0,1-.79-3.979,83.086,83.086,0,0,1-.521-9.292.327.327,0,0,0-.32-.32c-1.508-.063-3.02-.077-4.529.006a11.148,11.148,0,0,0-3.446.535.333.333,0,0,0-.224.4,27.819,27.819,0,0,0,3.161,7.606A43.653,43.653,0,0,0,97.533,55C97.791,55.32,98.242,54.863,97.986,54.544Z" fill="#eaae35"/>
    <path id="Path_1584" data-name="Path 1584" d="M135.116,41.924a52.55,52.55,0,0,1-4.394,9,25.8,25.8,0,0,1-2.415,3.669,9.428,9.428,0,0,1-3.915,2.586l.361.47a16.551,16.551,0,0,0,2.173-4.187,21.3,21.3,0,0,0,.805-3.9,80.279,80.279,0,0,0,.569-9.666l-.32.32q2.1-.082,4.2-.014a10.417,10.417,0,0,1,3.6.527.322.322,0,0,0,.4-.223l.016-.084-.63-.085a.335.335,0,0,0,.224.4l-.224-.4a15.127,15.127,0,0,1-.445,1.59c-.133.4.485.559.618.171a15.4,15.4,0,0,0,.446-1.591.333.333,0,0,0-.223-.4l.224.4c.01-.056.019-.113.024-.17.042-.357-.564-.44-.629-.086l-.016.085.4-.224a10.357,10.357,0,0,0-3.541-.543q-2.217-.078-4.432.006a.324.324,0,0,0-.224.1.327.327,0,0,0-.1.225,83.012,83.012,0,0,1-.52,9.285,22.512,22.512,0,0,1-.767,3.909,15.719,15.719,0,0,1-2.173,4.236.318.318,0,0,0-.04.181.323.323,0,0,0,.4.29,10.582,10.582,0,0,0,3.852-2.371,19.722,19.722,0,0,0,2.612-3.753,53.758,53.758,0,0,0,4.709-9.575C135.871,41.7,135.252,41.536,135.116,41.924Z" fill="#eaae35"/>
    <path id="Path_1585" data-name="Path 1585" d="M103.738,31.261Q100.1,24.9,96.73,18.4" fill="none" stroke="#eaae35" stroke-miterlimit="10" stroke-width="0.25"/>
    <path id="Path_1586" data-name="Path 1586" d="M108.144,30.962l-1.42-9.548" fill="none" stroke="#eaae35" stroke-miterlimit="10" stroke-width="0.25"/>
    <path id="Path_1587" data-name="Path 1587" d="M113.062,30.851q.248-7.136,1-14.248" fill="none" stroke="#eaae35" stroke-miterlimit="10" stroke-width="0.25"/>
    <path id="Path_1588" data-name="Path 1588" d="M117.705,31.066q.775-3.951,1.554-7.9" fill="none" stroke="#eaae35" stroke-miterlimit="10" stroke-width="0.25"/>
    <path id="Path_1589" data-name="Path 1589" d="M122.834,31.557q1.921-5.652,4.071-11.224" fill="none" stroke="#eaae35" stroke-miterlimit="10" stroke-width="0.25"/>
    <path id="Path_1590" data-name="Path 1590" d="M126.482,31.557l3.487-5.317" fill="none" stroke="#eaae35" stroke-miterlimit="10" stroke-width="0.25"/>
    <path id="Path_1591" data-name="Path 1591" d="M99.024,31.812l-3.8-4.02" fill="none" stroke="#eaae35" stroke-miterlimit="10" stroke-width="0.25"/>
    <path id="Path_1592" data-name="Path 1592" d="M132.841,45.432c-.628-.094-1.692.884-2.652,2.349s-2.285,2.534-2.2,3.385c0,0-.05,1.325.632,1.778s1.894,1.443,2.652.9c.385-.274.432-.988-.025-1.768a.791.791,0,0,0,1.314.053c.388-.521,0-1.137-.426-2.112.343.522.808.908,1.272.575s.413-1.051.17-1.778a1.169,1.169,0,0,0,.67-.107C135.282,48.169,134.028,45.609,132.841,45.432Z" fill="#dd9b80"/>
    <path id="Path_1593" data-name="Path 1593" d="M129.041,49.783c.714.824,1.529,1.736,2.347,2.551" fill="none" stroke="#9d6050" stroke-miterlimit="10" stroke-width="0.25"/>
    <path id="Path_1594" data-name="Path 1594" d="M130.5,48.051a9.8,9.8,0,0,1,1.976,2.542" fill="none" stroke="#9d6050" stroke-miterlimit="10" stroke-width="0.25"/>
    <path id="Path_1595" data-name="Path 1595" d="M131.846,46.408a7.47,7.47,0,0,1,1.68,2.484" fill="none" stroke="#9d6050" stroke-miterlimit="10" stroke-width="0.25"/>
    <path id="Path_1596" data-name="Path 1596" d="M92.824,47.225c.626-.11,1.714.842,2.709,2.282s2.348,2.476,2.282,3.329c0,0,.084,1.323-.587,1.789s-1.858,1.49-2.63.969c-.4-.264-.456-.973-.019-1.768a.79.79,0,0,1-1.312.087c-.4-.511-.029-1.137.373-2.123-.172.277-.3.593-.524.715a.753.753,0,0,1-.733-.11c-.476-.323-.439-1.04-.214-1.769a1.169,1.169,0,0,1-.672-.091C90.453,50.023,91.642,47.432,92.824,47.225Z" fill="#efa490"/>
    <path id="Path_1597" data-name="Path 1597" d="M96.73,51.48c-.691.842-1.482,1.773-2.282,2.61,0,0-.632,1.159.145,1.606S96.42,55.2,96.42,55.2" fill="none" stroke="#663434" stroke-miterlimit="10" stroke-width="0.25"/>
    <path id="Path_1598" data-name="Path 1598" d="M95.226,49.785a9.78,9.78,0,0,0-1.91,2.59,2.161,2.161,0,0,0-.129,1.41c.2.762,1.259.192,1.259.192" fill="none" stroke="#663434" stroke-miterlimit="10" stroke-width="0.25"/>
    <path id="Path_1599" data-name="Path 1599" d="M93.842,48.176A7.473,7.473,0,0,0,92.228,50.7s-.911,2.343.846,1.942" fill="none" stroke="#663434" stroke-miterlimit="10" stroke-width="0.25"/>
    <path id="Path_1600" data-name="Path 1600" d="M92.3,50.439a.636.636,0,0,1-.555.172.767.767,0,0,1-.551-.328,1.012,1.012,0,0,1-.152-.593,2.977,2.977,0,0,1,.1-.608" fill="none" stroke="#663434" stroke-miterlimit="10" stroke-width="0.25"/>
    <path id="Path_1601" data-name="Path 1601" d="M9.593,219H227.179" fill="none" stroke="#26d07c" stroke-miterlimit="10" stroke-width="0.5"/>
    <path id="Path_1602" data-name="Path 1602" d="M99.651,129.538a4.142,4.142,0,0,1-2.127-5.235c.235-.553.593-1.048.831-1.6a4.088,4.088,0,0,0,.024-3.129" fill="none" stroke="#f8da35" stroke-miterlimit="10" stroke-width="0.25"/>
    <path id="Path_1603" data-name="Path 1603" d="M131.6,89.052c-.676.165-.9,1.071-.663,1.724a8.142,8.142,0,0,0,1.166,1.72,4.69,4.69,0,0,1,.3,4.722" fill="none" stroke="#f8da35" stroke-miterlimit="10" stroke-width="0.25"/>
    <path id="Path_1604" data-name="Path 1604" d="M137.866,160.3a1.806,1.806,0,0,1,.275-1.772,5.983,5.983,0,0,1,1.4-1.245,11.749,11.749,0,0,0,2.806-2.675,5.226,5.226,0,0,0,1-3.67" fill="none" stroke="#f8da35" stroke-miterlimit="10" stroke-width="0.25"/>
    <path id="Path_1605" data-name="Path 1605" d="M203.514,109.662a2.941,2.941,0,0,0,.379,3.338c.708.966,1.7,1.7,2.384,2.684a5.44,5.44,0,0,1,.834,4.2" fill="none" stroke="#f8da35" stroke-miterlimit="10" stroke-width="0.25"/>
    <path id="Path_1606" data-name="Path 1606" d="M205.25,78.069c-.164-.769.633-1.357,1.261-1.832a7.807,7.807,0,0,0,2.78-7.963" fill="none" stroke="#f8da35" stroke-miterlimit="10" stroke-width="0.25"/>
    <path id="Path_1607" data-name="Path 1607" d="M21.13,110.582a2.233,2.233,0,0,1,1.238-2.559,14.971,14.971,0,0,1,2.963-.91,7.784,7.784,0,0,0,5.2-5.564" fill="none" stroke="#eaae35" stroke-miterlimit="10" stroke-width="0.25"/>
    <path id="Path_1608" data-name="Path 1608" d="M50.058,23.274a4.567,4.567,0,0,0,.175,4.327c.667,1.352,1.66,2.526,2.3,3.892a8.612,8.612,0,0,1-1.05,8.822" fill="none" stroke="#f8da35" stroke-miterlimit="10" stroke-width="0.25"/>
    <path id="Path_1609" data-name="Path 1609" d="M153.77,21.83c-1.591-.954-3.183-2.4-3.187-4.255a7.611,7.611,0,0,1,1.256-3.4,4.248,4.248,0,0,0,.562-3.5l.3.575" fill="none" stroke="#f8da35" stroke-miterlimit="10" stroke-width="0.25"/>
    <path id="Path_1610" data-name="Path 1610" d="M146.963,116.823a3.47,3.47,0,0,0,.79,2.8c.6.8,1.365,1.468,1.956,2.272a6.716,6.716,0,0,1,1.258,4.508" fill="none" stroke="#bc8ff1" stroke-miterlimit="10" stroke-width="0.25"/>
    <path id="Path_1611" data-name="Path 1611" d="M107.333,157.124c-.523-2.068.791-4.187,2.428-5.557s3.621-2.285,5.194-3.726,2.705-3.717,1.914-5.7" fill="none" stroke="#bc8ff1" stroke-miterlimit="10" stroke-width="0.25"/>
    <path id="Path_1612" data-name="Path 1612" d="M85.141,1c-.151,1.817,1.271,3.327,2.452,4.717s2.248,3.352,1.357,4.939c-.081.145-.18.316-.109.466s.383.061.3-.08" fill="none" stroke="#bc8ff1" stroke-miterlimit="10" stroke-width="0.25"/>
    <path id="Path_1613" data-name="Path 1613" d="M194.271,25.3a5.058,5.058,0,0,1,2.219-4.37c.647-.428,1.383-.7,2.023-1.144a4.544,4.544,0,0,0,1.861-4.232" fill="none" stroke="#bc8ff1" stroke-miterlimit="10" stroke-width="0.25"/>
    <path id="Path_1614" data-name="Path 1614" d="M226.224,74.562a1.937,1.937,0,0,0-.65,2.057c.154.752.537,1.44.7,2.189a3.984,3.984,0,0,1-1.257,3.795c-.993.86-2.568,1.5-2.513,2.812" fill="none" stroke="#bc8ff1" stroke-miterlimit="10" stroke-width="0.25"/>
    <path id="Path_1615" data-name="Path 1615" d="M11.057,80.738c.367,1.465,2,2.173,3,3.3a4.562,4.562,0,0,1,.571,5.09c-.531.967-1.462,1.956-1.1,3" fill="none" stroke="#bc8ff1" stroke-miterlimit="10" stroke-width="0.25"/>
    <path id="Path_1616" data-name="Path 1616" d="M9.089,124.591c-.077-1.481,1.611-2.31,2.736-3.281a5.549,5.549,0,0,0,1.877-3.627" fill="none" stroke="#bc8ff1" stroke-miterlimit="10" stroke-width="0.25"/>
    <path id="Path_1617" data-name="Path 1617" d="M75,36.865c.145-.889,1.014-1.442,1.686-2.047A6.208,6.208,0,0,0,78.1,27.737" fill="none" stroke="#bc8ff1" stroke-miterlimit="10" stroke-width="0.25"/>
    <path id="Path_1618" data-name="Path 1618" d="M110.946,94.175a2.847,2.847,0,0,0,.592,3.161c.744.872,1.752,1.482,2.553,2.3a3.182,3.182,0,0,1,1.028,3.1c-.139.405-.379.926-.046,1.2" fill="none" stroke="#459c90" stroke-miterlimit="10" stroke-width="0.25"/>
    <path id="Path_1619" data-name="Path 1619" d="M152.658,41.147a2.945,2.945,0,0,1,1.165-3.215,20.689,20.689,0,0,1,3.223-1.738,4.025,4.025,0,0,0,2.285-2.7" fill="none" stroke="#459c90" stroke-miterlimit="10" stroke-width="0.25"/>
    <path id="Path_1620" data-name="Path 1620" d="M24.325,12.845A2.215,2.215,0,0,0,25.432,15a8.274,8.274,0,0,1,2.024,1.566,4.723,4.723,0,0,1,.639,2.728" fill="none" stroke="#459c90" stroke-miterlimit="10" stroke-width="0.25"/>
    <path id="Path_1621" data-name="Path 1621" d="M134.049,125.69a2.3,2.3,0,1,1-.675-1.628A2.3,2.3,0,0,1,134.049,125.69Z" fill="#e9eaf2"/>
    <path id="Path_1622" data-name="Path 1622" d="M97.238,105.4a1.477,1.477,0,1,1-.432-1.043A1.476,1.476,0,0,1,97.238,105.4Z" fill="#e9eaf2"/>
    <path id="Path_1623" data-name="Path 1623" d="M193.652,83a1.505,1.505,0,1,0-1.506-1.505A1.505,1.505,0,0,0,193.652,83Z" fill="#459c90"/>
    <path id="Path_1624" data-name="Path 1624" d="M8.152,101.936a1.021,1.021,0,1,0-1.021-1.021A1.021,1.021,0,0,0,8.152,101.936Z" fill="#e9eaf2"/>
    <path id="Path_1625" data-name="Path 1625" d="M43.484,124.144a2.26,2.26,0,1,1-.172-.865A2.259,2.259,0,0,1,43.484,124.144Z" fill="#e9eaf2"/>
    <path id="Path_1626" data-name="Path 1626" d="M38.556,47.215a3.034,3.034,0,1,0-3.034-3.034A3.034,3.034,0,0,0,38.556,47.215Z" fill="#e9eaf2"/>
    <path id="Path_1627" data-name="Path 1627" d="M138.568,16.068a2.936,2.936,0,1,1-.86-2.075A2.931,2.931,0,0,1,138.568,16.068Z" fill="#e9eaf2"/>
    <path id="Path_1628" data-name="Path 1628" d="M92.236,143.428a1.389,1.389,0,1,1-.406-.976A1.38,1.38,0,0,1,92.236,143.428Z" fill="#fff"/>
    <path id="Path_1629" data-name="Path 1629" d="M125.143,164.211A2.144,2.144,0,1,0,123,162.067,2.144,2.144,0,0,0,125.143,164.211Z" fill="#fff"/>
    <path id="Path_1630" data-name="Path 1630" d="M152.132,137.6a1.7,1.7,0,1,1-.13-.65A1.7,1.7,0,0,1,152.132,137.6Z" fill="#fff"/>
    <path id="Path_1631" data-name="Path 1631" d="M214.323,102.827a2.833,2.833,0,1,1-.83-2A2.838,2.838,0,0,1,214.323,102.827Z" fill="#9fe0e2"/>
    <path id="Path_1632" data-name="Path 1632" d="M220.207,61.749a1.085,1.085,0,1,0-1.085-1.085A1.084,1.084,0,0,0,220.207,61.749Z" fill="#9fe0e2"/>
    <path id="Path_1633" data-name="Path 1633" d="M177.6,40.457a2.035,2.035,0,1,0-2.035-2.035A2.035,2.035,0,0,0,177.6,40.457Z" fill="#fff"/>
    <path id="Path_1634" data-name="Path 1634" d="M155.16,54.713a1.968,1.968,0,1,1-.577-1.391A1.97,1.97,0,0,1,155.16,54.713Z" fill="#9fe0e2"/>
    <path id="Path_1635" data-name="Path 1635" d="M62.806,49.646a1.6,1.6,0,1,1-.468-1.129A1.6,1.6,0,0,1,62.806,49.646Z" fill="#9fe0e2"/>
    <path id="Path_1636" data-name="Path 1636" d="M66.872,14.584a1.976,1.976,0,1,1-.579-1.4A1.976,1.976,0,0,1,66.872,14.584Z" fill="#9fe0e2"/>
    <path id="Path_1637" data-name="Path 1637" d="M24.138,32.451a1.428,1.428,0,1,1-.419-1.009A1.428,1.428,0,0,1,24.138,32.451Z" fill="#9fe0e2"/>
    <path id="Path_1638" data-name="Path 1638" d="M45.548,62.848a1.185,1.185,0,1,1-.347-.838A1.186,1.186,0,0,1,45.548,62.848Z" fill="#eaae35"/>
  </g>
</svg>
