<svg id="Group_1" data-name="Group 1" xmlns="http://www.w3.org/2000/svg" xmlns:xlink="http://www.w3.org/1999/xlink" width="194.742" height="238.967" viewBox="0 0 194.742 238.967">
  <defs>
    <linearGradient id="linear-gradient" x1="0.5" x2="0.5" y2="1" gradientUnits="objectBoundingBox">
      <stop offset="0" stop-color="#5faefc"/>
      <stop offset="1" stop-color="#37b060"/>
    </linearGradient>
    <linearGradient id="linear-gradient-3" x1="0.5" x2="0.5" y2="1" gradientUnits="objectBoundingBox">
      <stop offset="0" stop-color="#37b060"/>
      <stop offset="1" stop-color="#5faefc"/>
    </linearGradient>
  </defs>
  <g id="_1020429" data-name="1020429" transform="translate(0 0)">
    <path id="Path_49" data-name="Path 49" d="M110.352-194.022a8.3,8.3,0,0,0-2,5.375c0,2-.375,6.125-.75,9.125-.75,5.75-.875,5.75-6.625,6.5-8.625,1.25-21.75,6.125-31.375,12-21.625,12.75-38.624,35.25-45.249,59.874-3.75,13.5-3.625,36.875,0,50.624,7.25,26.5,26.5,50.249,50.5,62.124,8.875,4.375,12.25,4.25,12.25-.625,0-2.5-1.625-3.875-9-8-30.25-16.625-47.249-45-47.249-79,0-43.249,28.75-78.5,71.749-88.124l3.625-.75-.875,6.375c-.875,6.875.375,10,4.125,10,3.125,0,25.125-18.5,25.125-21.125,0-2.125-16.125-23.375-19.125-25.375C113.352-196.4,112.477-196.271,110.352-194.022Z" transform="translate(-21.587 195.914)" fill="url(#linear-gradient)"/>
    <path id="Path_51" data-name="Path 51" d="M138.418-144.816c-6.75,5-13.25,7.5-28,10.375-7.5,1.5-16.25,3.75-19.375,5.125-20.5,9.125-29.75,38.75-19.125,61l3.875,7.875-3.75,8.25c-4.625,10-7.375,22.5-5.75,25.5,1.25,2.625,5.375,3,6.875.625.5-.75,1.875-5.25,3.125-9.875,4.5-17.875,16.875-37.125,35.75-55.749,7.625-7.625,11.125-10.25,13.125-10a3.482,3.482,0,0,1,3.125,3.25c.375,2.125-2.125,5.5-9.75,13.625-12.625,13.25-18.75,22.375-19.625,28.875-.875,6.875,1.5,8.125,12.25,6.375,34.75-5.5,48.124-37.374,37.374-89.124C146.668-147.691,144.168-149.316,138.418-144.816Z" transform="translate(-10.529 208.082)" fill="url(#linear-gradient)"/>
  </g>
  <path id="Path_71" data-name="Path 71" d="M88.765,1.892a8.3,8.3,0,0,0-2,5.375c0,2-.375,6.125-.75,9.125-.75,5.75-.875,5.75-6.625,6.5-8.625,1.25-21.75,6.125-31.375,12C26.39,47.642,9.391,70.141,2.766,94.766c-3.75,13.5-3.625,36.875,0,50.624,7.25,26.5,26.5,50.249,50.5,62.124,8.875,4.375,12.25,4.25,12.25-.625,0-2.5-1.625-3.875-9-8-30.25-16.625-47.249-45-47.249-79,0-43.249,28.75-78.5,71.749-88.124l3.625-.75-.875,6.375c-.875,6.875.375,10,4.125,10,3.125,0,25.125-18.5,25.125-21.125,0-2.125-16.125-23.375-19.125-25.375C91.765-.483,90.89-.358,88.765,1.892Z" transform="translate(194.742 238.967) rotate(-180)" fill="url(#linear-gradient-3)"/>
</svg>
