<svg id="Group_1025" data-name="Group 1025" xmlns="http://www.w3.org/2000/svg" width="19.702" height="19.702" viewBox="0 0 19.702 19.702">
  <path id="path" d="M20.321,13.247a8,8,0,0,1-7.075,7.075v.985a.9.9,0,0,1-1.791,0v-.985a7.836,7.836,0,0,1-7.075-7.075H3.4a.9.9,0,1,1,0-1.791h.985a7.836,7.836,0,0,1,7.075-7.075V3.4a.9.9,0,1,1,1.791,0v.985a8,8,0,0,1,7.075,7.075h.985a.9.9,0,0,1,0,1.791Zm-7.97,5.373a6.269,6.269,0,1,0-6.269-6.269,6.23,6.23,0,0,0,6.269,6.269Zm0-2.687a3.582,3.582,0,1,1,3.582-3.582,3.593,3.593,0,0,1-3.582,3.582Zm0-1.791c.985,0,0,.985,0,0s.985,0,0,0,0-.985,0,0-.985,0,0,0Z" transform="translate(-2.5 -2.5)" fill="#0677e2"/>
</svg>
