<svg xmlns="http://www.w3.org/2000/svg" width="18.496" height="19.082" viewBox="0 0 18.496 19.082">
  <g id="Group" transform="translate(0)">
    <path id="Shape" d="M6.354.522A9.553,9.553,0,0,0,.185,7.656a9.58,9.58,0,0,0,3.379,9.355,9.364,9.364,0,0,0,3.43,1.749,9.993,9.993,0,0,0,4.83.051,8.533,8.533,0,0,0,3.866-2.031,8.684,8.684,0,0,0,2.39-3.959,11.322,11.322,0,0,0,.238-5.067H9.439v3.724h5.144A4.5,4.5,0,0,1,12.7,14.426a5.372,5.372,0,0,1-2.08.831,6.159,6.159,0,0,1-2.253-.005,5.556,5.556,0,0,1-2.1-.918A5.881,5.881,0,0,1,4.1,7.692,5.97,5.97,0,0,1,5.472,5.44a5.507,5.507,0,0,1,5.591-1.472A5.069,5.069,0,0,1,13.1,5.179l1.735-1.754c.3-.313.624-.615.918-.939a9.186,9.186,0,0,0-3.039-1.9A9.427,9.427,0,0,0,6.354.522Z" transform="translate(0 0.001)" fill="#fff"/>
    <path id="Shape-2" data-name="Shape" d="M5.347.522A9.458,9.458,0,0,1,11.7.579a9.155,9.155,0,0,1,3.039,1.9c-.294.323-.614.626-.918.939L12.09,5.174a5.128,5.128,0,0,0-2.034-1.21,5.513,5.513,0,0,0-2.77-.113A5.623,5.623,0,0,0,4.464,5.436a5.93,5.93,0,0,0-1.37,2.252C2.065,6.877,1.035,6.072,0,5.261A9.515,9.515,0,0,1,5.347.522Z" transform="translate(1.007)" fill="#ea4335"/>
    <path id="Path" d="M.185,2.4A9.585,9.585,0,0,1,1.007,0C2.037.81,3.067,1.616,4.1,2.426a5.814,5.814,0,0,0,0,3.713Q2.557,7.355,1.012,8.565A9.585,9.585,0,0,1,.185,2.4Z" transform="translate(0.005 5.251)" fill="#fbbc05"/>
    <path id="Shape-3" data-name="Shape" d="M.005,0H8.883a11.4,11.4,0,0,1-.238,5.067,8.684,8.684,0,0,1-2.39,3.959l-3-2.354A4.5,4.5,0,0,0,5.144,3.724H0Q.008,1.862.005,0Z" transform="translate(9.434 7.749)" fill="#4285f4"/>
    <path id="Shape-4" data-name="Shape" d="M0,2.426Q1.545,1.218,3.09,0A5.923,5.923,0,0,0,5.251,2.929a5.591,5.591,0,0,0,2.1.918A6.048,6.048,0,0,0,9.6,3.852a5.372,5.372,0,0,0,2.08-.831l3,2.354a8.483,8.483,0,0,1-3.866,2.031,9.993,9.993,0,0,1-4.83-.051,9.286,9.286,0,0,1-3.43-1.749A9.584,9.584,0,0,1,0,2.426Z" transform="translate(1.007 11.395)" fill="#34a853"/>
  </g>
</svg>
