<svg xmlns="http://www.w3.org/2000/svg" width="16.383" height="23.291" viewBox="0 0 16.383 23.291">
  <path id="Path_51" data-name="Path 51" d="M79.6-146.777c-1.281.949-2.514,1.423-5.313,1.969a24.848,24.848,0,0,0-3.676.972c-3.89,1.731-5.645,7.352-3.629,11.574l.735,1.494L67-129.2c-.878,1.9-1.4,4.269-1.091,4.838a.78.78,0,0,0,1.3.119,13.76,13.76,0,0,0,.593-1.874c.854-3.392,3.2-7.044,6.783-10.578,1.447-1.447,2.111-1.945,2.49-1.9a.661.661,0,0,1,.593.617c.071.4-.4,1.044-1.85,2.585-2.4,2.514-3.558,4.245-3.724,5.479-.166,1.3.285,1.542,2.324,1.21,6.593-1.044,9.131-7.091,7.091-16.91C81.163-147.323,80.689-147.631,79.6-146.777Z" transform="translate(-65.824 147.237)" fill="#fff"/>
</svg>
